<svg width="69" height="70" fill="none" xmlns="http://www.w3.org/2000/svg"><path d="M.406 32.577h0a.563.563 0 01-.222-.21.482.482 0 01-.056-.293.493.493 0 01.116-.281.516.516 0 01.263-.153l5.055-1.529h.003a.507.507 0 01.476.09.47.47 0 01.172.438.544.544 0 01-.102.263l-.006.009h0a.501.501 0 01-.249.157l-.968.276-.253 2.425.891.478.003.001h0c.094.054.166.13.209.226.04.085.057.175.048.267a.472.472 0 01-.275.391M.406 32.577l5.105 2.555M.406 32.577h.001l4.619 2.535c.157.09.324.1.485.02M.406 32.577l5.105 2.555m-1.707-1.809l-2.018-1.088 2.197-.63-.179 1.718zm2.644-4.873h0l.003-.002a.49.49 0 00.246-.297l.904-2.866a.491.491 0 00-.031-.384.489.489 0 00-.296-.247.487.487 0 00-.384.031.49.49 0 00-.246.297l-.752 2.387-4.195-1.33a.487.487 0 00-.383.03.49.49 0 00-.246.297.483.483 0 00.034.377.49.49 0 00.295.247l4.673 1.482a.5.5 0 00.378-.022zM3.69 19.973h0-.008a.488.488 0 00-.453.245.491.491 0 00-.056.38c.03.133.112.237.233.308l4.22 2.5a.485.485 0 00.38.057.489.489 0 00.306-.233.491.491 0 00.056-.382.49.49 0 00-.233-.307L5.55 21.01l3.336.237a.516.516 0 00.282-.049.497.497 0 00.205-.198.5.5 0 00.008-.497l-.003-.007-.004-.006-1.887-2.883 2.635 1.561c.119.07.248.09.38.056a.489.489 0 00.306-.233.482.482 0 00.053-.373.479.479 0 00-.23-.316l-4.219-2.5a.472.472 0 00-.382-.056.488.488 0 00-.304.233.491.491 0 00.004.517h0l.004.007 2.505 3.792-4.55-.322zm9.249-3.905h.001a3.252 3.252 0 001.02-.693 3.21 3.21 0 00.707-1.002v-.001c.157-.366.238-.739.242-1.119v-.001a2.863 2.863 0 00-.228-1.124h0a3.321 3.321 0 00-.696-1.027 3.255 3.255 0 00-1.003-.716 2.782 2.782 0 00-2.233-.03 3.107 3.107 0 00-1.02.684c-.313.307-.55.645-.708 1.012-.16.363-.241.737-.242 1.12h0c0 .378.076.75.229 1.115.153.367.384.707.69 1.022a3.31 3.31 0 001.009.72h0c.36.16.73.247 1.11.259h.002a2.88 2.88 0 001.12-.219zm-.584-4.87l.001.001c.342.103.653.297.933.584.28.288.469.606.568.955a2 2 0 01.012 1.039c-.09.34-.275.65-.56.93-.286.281-.6.46-.94.543a1.98 1.98 0 01-1.036-.036 2.218 2.218 0 01-.939-.59 2.185 2.185 0 01-.562-.948h0a1.93 1.93 0 01-.013-1.039c.09-.34.275-.651.561-.932.286-.28.6-.46.941-.542a1.914 1.914 0 011.034.036zm5.14.664h0l.004.001a.488.488 0 00.381-.05.475.475 0 00.238-.306.491.491 0 00-.05-.38l-1.775-3.118 4.479 1.94h.002c.07.03.145.04.222.032v.001l.013-.003a.63.63 0 00.19-.068.475.475 0 00.239-.308.505.505 0 00-.058-.374L18.95 4.96a.487.487 0 00-.678-.19.49.49 0 00-.237.301.476.476 0 00.05.384l1.778 3.124-4.479-1.939h0l-.006-.002a.487.487 0 00-.425.033.49.49 0 00-.18.682l2.43 4.269c.067.117.165.2.292.24zm9.724-6.056h0a2.8 2.8 0 01-.311 1.078h0a2.805 2.805 0 01-.717.859h0a3.138 3.138 0 01-1.066.542l-1.255.377a.488.488 0 01-.383-.037m3.732-2.819l-3.732 2.82m3.732-2.82a3.272 3.272 0 00-.14-1.203 3.21 3.21 0 00-.541-1.075 2.71 2.71 0 00-.849-.721 2.653 2.653 0 00-1.069-.322 3.04 3.04 0 00-1.19.128l-1.255.378a.489.489 0 00-.298.24.476.476 0 00-.038.385l1.407 4.71a.49.49 0 00.24.3m3.733-2.82l-3.732 2.82m1.245-5.176h0c.332.08.62.242.869.486.246.242.43.557.546.948a2.2 2.2 0 01.063 1.093c-.074.34-.226.637-.457.891a1.933 1.933 0 01-.89.538l-.776.233-1.169-3.913.775-.233c.37-.111.715-.124 1.04-.043zm8.281 3.269h.002c.358.154.741.231 1.148.233a2.87 2.87 0 001.855-.652h0l.01-.01a.494.494 0 00.153-.356.46.46 0 00-.12-.333.432.432 0 00-.296-.141.483.483 0 00-.338.102h0-.001a2.646 2.646 0 01-.61.338 1.82 1.82 0 01-.65.112 1.834 1.834 0 01-.75-.159 2.04 2.04 0 01-.625-.453 2.131 2.131 0 01-.414-.666 2.245 2.245 0 01-.148-.826c.001-.29.053-.56.154-.81h0c.102-.258.241-.48.419-.671a2.04 2.04 0 01.629-.449c.234-.107.485-.16.752-.16.304.002.536.043.702.116h.001c.18.078.354.19.523.338h0l.005.004a.52.52 0 00.351.122h.007a.516.516 0 00.303-.134h0a.43.43 0 00.143-.323.517.517 0 00-.039-.21.529.529 0 00-.149-.184v-.001c-.279-.23-.56-.4-.846-.504a2.92 2.92 0 00-.998-.156 2.804 2.804 0 00-1.152.231 2.924 2.924 0 00-.932.649h0a3.032 3.032 0 00-.623.959h0a3.136 3.136 0 00-.224 1.179c-.001.426.07.824.215 1.194h0V5.1c.149.368.354.692.615.97h0l.001.002c.266.274.575.49.927.648zm8.54-1.945h0c.243-.245.4-.55.475-.913a1.91 1.91 0 00-.05-1.025 1.75 1.75 0 00-.55-.799 2.083 2.083 0 00-.951-.45L39.2 1.323a.488.488 0 00-.377.069.475.475 0 00-.216.321l-.991 4.814a.491.491 0 00.07.38.489.489 0 00.32.214.473.473 0 00.38-.071.49.49 0 00.212-.32l.339-1.647.785.162h.002v.001h.005v.001h.005v.001h.005v.001h.004v.001h.005v.001h.005v.001h.005v.001h.005v.001h.004l.001.001h.004v.001h.005v.001h.004l.792 2.15h0v.002a.491.491 0 00.374.322.524.524 0 00.265-.007.443.443 0 00.213-.148h0l.001-.002c.119-.15.133-.33.064-.518h0l-.677-1.845c.284-.086.531-.231.739-.437zm-1.639-.456l-.785-.163.372-1.803.785.163c.293.06.508.199.654.412a.914.914 0 01.135.736.802.802 0 01-.398.563c-.215.12-.466.153-.763.092zm6.771 2.684h0l.004-.001a.469.469 0 00.261-.26.447.447 0 00.004-.366.488.488 0 00-.273-.265l-1.795-.77.593-1.392 2.548 1.092a.5.5 0 00.374.021.445.445 0 00.263-.255.456.456 0 00.006-.372.488.488 0 00-.272-.265l-3.009-1.29a.487.487 0 00-.382-.007.474.474 0 00-.276.272l-1.926 4.52a.491.491 0 00-.006.385.49.49 0 00.27.275l3.01 1.29a.501.501 0 00.374.021h0l.004-.002a.478.478 0 00.264-.267.447.447 0 00.003-.367.503.503 0 00-.275-.256L43.902 7.65l.613-1.439 1.795.77a.501.501 0 00.375.021zm2.277 3.664h0v.002a.572.572 0 00-.024.337c.029.11.096.199.19.269a.46.46 0 00.309.096h0a.655.655 0 00.317-.108h0l.01-.007L52.76 8.87l-1.457 3.55h0l-.003.01a.644.644 0 00-.02.312h0l.001.005c.026.117.09.213.186.286a.46.46 0 00.31.096h0a.653.653 0 00.316-.108h0l.006-.005 4.061-2.998h0l.003-.002a.71.71 0 00.26-.354.35.35 0 00-.007-.234.44.44 0 00-.15-.187.55.55 0 00-.298-.12.444.444 0 00-.295.096h0l-3.119 2.368 1.418-3.551a.39.39 0 00-.002-.325.52.52 0 00-.475-.341.445.445 0 00-.293.093s0 0 0 0l-2.97 2.34 1.366-3.604h0v-.001a.504.504 0 00-.168-.592.42.42 0 00-.43-.065h0c-.144.062-.239.199-.3.37 0 0 0 0 0 0l-1.738 4.756zm11.963 4.21h0-.001l-5.149 1.103a.498.498 0 00-.38.302.492.492 0 00.257.647.473.473 0 00.304.035h.003l.986-.222 1.387 2.002-.555.843a.505.505 0 00-.085.282h0v.011a.56.56 0 00.094.266.47.47 0 00.416.22.508.508 0 00.419-.243h0l.001-.003 2.836-4.467a.519.519 0 00.1-.288.493.493 0 00-.095-.29.479.479 0 00-.233-.184.56.56 0 00-.305-.014zm-3.06 1.659l2.237-.497-1.256 1.915-.981-1.418zm1.142 5.375h0l-.002.003a.491.491 0 00.008.386l1.188 2.76a.49.49 0 00.274.27.49.49 0 00.385-.009.49.49 0 00.27-.275.491.491 0 00-.008-.385l-.99-2.299 4.04-1.749a.49.49 0 00.269-.275.491.491 0 00-.008-.386.48.48 0 00-.272-.263.487.487 0 00-.384.008l-4.5 1.948a.504.504 0 00-.27.265zm7.629 4.656h0l.005-.004a.49.49 0 00.184-.483.49.49 0 00-.204-.324.473.473 0 00-.378-.082l-4.824.866a.489.489 0 00-.325.206.491.491 0 00-.08.377.49.49 0 00.205.326c.113.078.24.104.377.08l2.956-.53L61.868 29a.527.527 0 00-.182.222.499.499 0 00-.026.284.5.5 0 00.316.38l.007.004.008.002 3.305.951-3.013.54a.489.489 0 00-.325.207.491.491 0 00-.08.377c.024.132.093.24.203.317a.477.477 0 00.379.09l4.824-.866a.474.474 0 00.326-.209.491.491 0 00.08-.375.49.49 0 00-.34-.389h0l-.008-.002-4.364-1.236 3.658-2.732zm-4.466 9.062h0v.002a3.272 3.272 0 00-.325 1.19 3.21 3.21 0 00.11 1.223v.001c.118.38.299.716.542 1.008h0c.248.292.55.528.902.706h0a3.3 3.3 0 001.195.326 3.25 3.25 0 001.227-.11 2.789 2.789 0 001.716-1.434c.183-.35.293-.746.332-1.184.04-.438 0-.849-.118-1.23a2.746 2.746 0 00-.541-1.01h0a2.843 2.843 0 00-.896-.697 3.245 3.245 0 00-1.187-.326 3.303 3.303 0 00-1.233.11h0a2.922 2.922 0 00-1.011.527h0l-.002.002a2.873 2.873 0 00-.71.896zm3.599 3.32h0a2.17 2.17 0 01-1.089.164 2.213 2.213 0 01-1.049-.355 1.99 1.99 0 01-.682-.78 2.02 2.02 0 01-.178-1.074c.036-.4.158-.74.364-1.026a1.99 1.99 0 01.81-.648c.332-.144.696-.2 1.095-.164.4.036.746.154 1.042.354h0c.303.202.53.461.683.78.153.318.213.675.177 1.075-.035.4-.158.74-.364 1.026a1.923 1.923 0 01-.81.647zm-4.316 2.832h0l-.004.001a.49.49 0 00-.257.287.476.476 0 00.018.388.49.49 0 00.285.255l3.37 1.21-4.66 1.45h0-.003a.465.465 0 00-.19.121h0l-.008.01a.631.631 0 00-.1.176.476.476 0 00.018.389c.061.118.16.2.287.247l4.614 1.657a.485.485 0 00.638-.296.491.491 0 00-.016-.384.474.474 0 00-.287-.26l-3.376-1.212 4.66-1.45h0l.007-.002a.488.488 0 00.301-.302.487.487 0 00-.305-.636l-4.614-1.657a.5.5 0 00-.378.008zm-3.419 10.893h0c.23.316.526.59.887.823.361.232.731.387 1.11.461.377.075.748.073 1.112-.007a2.653 2.653 0 001.02-.454c.315-.22.588-.512.82-.874l.707-1.107a.491.491 0 00.07-.377.475.475 0 00-.221-.317l-4.125-2.654a.487.487 0 00-.379-.07.488.488 0 00-.314.221l-.707 1.107a3.154 3.154 0 00-.457 1.107h0c-.07.381-.066.755.014 1.12h0a2.8 2.8 0 00.463 1.02zm3.417.164h0a1.83 1.83 0 01-.974.199 2.154 2.154 0 01-1.03-.362 2.188 2.188 0 01-.758-.788 1.9 1.9 0 01-.232-.976c.012-.334.12-.664.328-.99l.436-.683 3.428 2.206-.437.683a1.937 1.937 0 01-.761.711zm-6.1 3.165a2.98 2.98 0 00-1.054-.318 2.85 2.85 0 00-1.076.113c-.354.113-.68.298-.976.553a2.761 2.761 0 00-.936 1.638.37.37 0 00.086.28c.07.08.145.124.226.13l3.73-2.397zm0 0c.336.176.637.42.904.733m-.904-.733l.904.733m0 0c.264.309.456.641.576.997l-.576-.997zm-3.07-1.058h0-.002a2.92 2.92 0 00-1.02.578 2.886 2.886 0 00-.977 1.71h0l-.002.013c-.01.14.027.267.116.371a.456.456 0 00.31.174.43.43 0 00.315-.088.482.482 0 00.189-.298h0v-.002c.054-.236.135-.454.24-.654a1.85 1.85 0 01.42-.512c.203-.175.426-.299.672-.373.25-.071.505-.094.768-.067a2.14 2.14 0 011.397.76c.188.22.325.458.412.714h0c.09.261.13.521.12.782a2.052 2.052 0 01-.183.752c-.107.235-.262.44-.464.614-.232.2-.434.32-.607.374h0-.001a1.94 1.94 0 01-.616.088h0-.006a.52.52 0 00-.345.138h0l-.005.005a.519.519 0 00-.143.3h0a.43.43 0 00.103.338.515.515 0 00.167.134l.054-.113-.054.113a.527.527 0 00.233.041h0a2.86 2.86 0 00.969-.174c.281-.106.567-.286.856-.536.313-.269.554-.579.72-.93.166-.35.26-.717.283-1.102h0a3.04 3.04 0 00-.154-1.134h0v-.001a3.132 3.132 0 00-.6-1.038 3.195 3.195 0 00-.94-.763h0l-.002-.001a3.106 3.106 0 00-1.098-.33h0l-.002-.001a2.972 2.972 0 00-1.123.118zm-4.98 6.325a1.76 1.76 0 00-.275.813v.002c-.025.343.055.679.235 1.002.18.326.415.575.705.743.284.17.597.25.936.245a2.08 2.08 0 001.014-.282l1.138-.636a.49.49 0 00.24-.299.476.476 0 00-.045-.385L49.77 58.91a.489.489 0 00-.3-.241.488.488 0 00-.382.046.475.475 0 00-.241.303.491.491 0 00.047.38l.815 1.471-.7.391h0-.001v.001h0-.001 0l-.001.001h0-.001 0v.001h-.001 0-.001 0v.001h0-.001 0H49v.001h0l-.001.001h0-.001 0v.001h-.001 0-.001 0v.001h0-.001 0-.001 0v.001h0-.001 0-.001v.001h0-.001 0l-.001.001h0-.001 0v.001h-.001 0-.001 0v.001h0-.001 0-.001v.001h0-.001 0l-.001.001h0-.001 0v.001h-.001 0-.001 0v.001h-.001 0-.001 0v.001h0-.001 0-.001 0v.001h0-.001 0-.001v.001h0-.001 0l-.001.001h0-.001 0v.001h-.001 0-.001 0v.001h0-.001 0-.001v.001h0-.001 0l-.001.001h0-.001 0v.001h-.001 0-.001 0v.001h0-.001 0-.001 0v.001h0-.001 0-.001v.001h0-.001 0l-.001.001h0l-2-1.11h0a.49.49 0 00-.493 0 .526.526 0 00-.196.18.445.445 0 00-.065.25h0v.003c.009.192.115.338.29.435h0l1.713.954zm1.263.086l.7-.39.893 1.608-.7.39c-.263.147-.515.183-.764.118a.91.91 0 01-.581-.47.804.804 0 01-.066-.687c.085-.23.253-.421.518-.569zm-6.892 2.427h0l-.002.004a.47.47 0 00-.029.368c.04.126.117.223.234.279a.485.485 0 00.38.023l1.861-.59.455 1.443-2.641.838a.503.503 0 00-.298.229.447.447 0 00-.033.365.45.45 0 00.236.286.486.486 0 00.38.023l3.12-.99a.489.489 0 00.294-.244.476.476 0 00.032-.386l-1.477-4.687a.49.49 0 00-.246-.297.487.487 0 00-.383-.03l-3.12.989a.503.503 0 00-.298.229h0l-.002.004a.48.48 0 00-.027.375c.04.126.119.224.237.28a.501.501 0 00.375.015l2.641-.838.47 1.492-1.861.591a.503.503 0 00-.298.229zm-4.116-1.26h0L40.23 68s0 0 0 0c.063.17.08.337.012.477l-.001.002h0a.422.422 0 01-.368.23.5.5 0 01-.512-.34h-.001 0l-1.302-3.627-.736 3.715h0l-.123-.024a.322.322 0 01-.118.19.388.388 0 01-.226.087.394.394 0 01-.221-.05l1.827-5.404zm0 0v-.001a.57.57 0 00-.201-.271.492.492 0 00-.319-.081.46.46 0 00-.297.13h0a.657.657 0 00-.17.289h0l-.003.011-.727 3.766-1.2-3.646h.001l-.004-.01a.64.64 0 00-.187-.249h0l-.004-.003a.48.48 0 00-.327-.096.46.46 0 00-.297.13h-.001a.658.658 0 00-.17.289h0l-.001.007-1.136 4.928h0v.003a.704.704 0 00.032.439.35.35 0 00.157.173.439.439 0 00.235.043.55.55 0 00.304-.103.447.447 0 00.162-.266h0l.83-3.833 1.229 3.62a.389.389 0 00.212.246l1.883-5.515zm-11.957 4.631h0v-.001l3.202-4.193a.499.499 0 00.094-.477.491.491 0 00-.614-.325.483.483 0 00-.255.172h0l-.002.003-.607.81-2.35-.62-.124-1.002a.503.503 0 00-.118-.27h0l-.007-.007a.543.543 0 00-.244-.142.467.467 0 00-.458.104.51.51 0 00-.161.458h0v.002l.735 5.245a.518.518 0 00.111.284c.066.08.156.13.26.158a.479.479 0 00.298-.011.562.562 0 00.24-.188zm1.253-3.255l-1.38 1.835-.285-2.274 1.665.439zm-4.25-3.289h0l-.001-.004a.49.49 0 00-.256-.288l-2.69-1.324a.488.488 0 00-.384-.027l.04.119-.04-.119a.49.49 0 00-.287.257.49.49 0 00-.027.384l.118-.04-.118.04a.49.49 0 00.256.288l2.24 1.103-1.937 3.962a.491.491 0 00-.026.385.49.49 0 00.256.288c.12.06.25.067.377.023a.489.489 0 00.287-.256l2.158-4.414a.505.505 0 00.034-.377zm-8.846 1.44h0l-.001.007a.49.49 0 00.175.486c.106.087.23.127.365.113a.473.473 0 00.34-.185l3.095-3.811a.491.491 0 00.112-.369.49.49 0 00-.184-.339.487.487 0 00-.368-.112.488.488 0 00-.337.185l-1.897 2.335.732-3.273a.53.53 0 00-.006-.287.498.498 0 00-.164-.233.497.497 0 00-.488-.082l-.008.002-.006.003-3.124 1.44 1.933-2.38a.491.491 0 00.112-.368.49.49 0 00-.184-.339.48.48 0 00-.36-.108.476.476 0 00-.346.18l-3.095 3.812a.476.476 0 00-.112.37c.014.136.078.25.184.337.15.123.327.144.51.073h0l.008-.003 4.112-1.917-.998 4.463zm-2.512-9.779h0v-.001a3.27 3.27 0 00-.528-1.116 3.204 3.204 0 00-.88-.854h0a2.874 2.874 0 00-1.065-.411h-.002a2.859 2.859 0 00-1.142.055h0a3.307 3.307 0 00-1.118.533 3.258 3.258 0 00-.858.887 2.802 2.802 0 00-.37 2.208c.09.386.263.757.519 1.115.255.358.551.644.89.856.332.215.688.352 1.066.411h0c.372.058.75.039 1.133-.057a3.25 3.25 0 001.112-.53 3.29 3.29 0 00.863-.889h0c.214-.333.355-.687.424-1.06h0v-.003a2.897 2.897 0 00-.044-1.144zm-4.887-.163h0c.155-.324.393-.603.719-.837a2.215 2.215 0 011.026-.417 1.98 1.98 0 011.026.146c.322.14.6.371.832.697.233.326.361.664.39 1.016a2 2 0 01-.192 1.02 2.224 2.224 0 01-.724.841c-.326.234-.665.37-1.02.413h0a1.923 1.923 0 01-1.025-.145 2.01 2.01 0 01-.833-.698 2.018 2.018 0 01-.391-1.016c-.03-.354.034-.693.192-1.02zm1.407-5.016h0l.002-.004a.491.491 0 00.007-.385.474.474 0 00-.264-.282.488.488 0 00-.383-.007l-3.341 1.286 2.59-4.147h0l.001-.002a.468.468 0 00.066-.216h0v-.013a.635.635 0 00-.038-.199.474.474 0 00-.267-.282.501.501 0 00-.378 0l-4.575 1.762a.488.488 0 00-.291.642.49.49 0 00.26.28c.124.06.256.06.387.01l3.348-1.29-2.59 4.148h0l-.004.006a.49.49 0 00-.032.426.485.485 0 00.645.282l4.575-1.762a.503.503 0 00.282-.253zM4.176 37.27v-.001a3.245 3.245 0 00-1.207-.045c-.425.06-.806.184-1.142.374-.335.19-.615.434-.84.732a2.67 2.67 0 00-.48 1.011 3.067 3.067 0 00-.053 1.199l.18 1.301a.49.49 0 00.192.332.473.473 0 00.375.097l4.853-.68a.489.489 0 00.333-.194.49.49 0 00.095-.373L6.3 39.72a3.156 3.156 0 00-.372-1.138v-.001a2.804 2.804 0 00-.737-.84h0a2.78 2.78 0 00-1.015-.473zm-2.7 2.106h0v-.001c.13-.316.333-.578.611-.786a2.155 2.155 0 011.016-.398c.398-.056.76-.02 1.087.103.324.125.593.32.809.589.208.261.34.582.394.965l.112.804-4.032.565-.112-.804a1.946 1.946 0 01.116-1.037z" fill="#fff" stroke="#fff" stroke-width=".25"/></svg>