<svg width="25" height="24" fill="none" xmlns="http://www.w3.org/2000/svg"><path d="M12.604 23.359c-1.702 0-3.266-.284-4.692-.851a10.835 10.835 0 01-3.703-2.415 10.836 10.836 0 01-2.415-3.703c-.567-1.426-.851-2.99-.851-4.692 0-1.717.284-3.289.851-4.715A10.836 10.836 0 014.209 3.28 10.836 10.836 0 017.912.865c1.426-.567 2.99-.851 4.692-.851 1.717 0 3.289.284 4.715.851a10.836 10.836 0 013.703 2.415 10.835 10.835 0 012.415 3.703c.567 1.426.851 2.998.851 4.715 0 1.38-.184 2.607-.552 3.68-.368 1.058-.882 1.894-1.541 2.507-.644.613-1.395.92-2.254.92-.736 0-1.342-.238-1.817-.713-.475-.475-.713-1.081-.713-1.817v-.736c-.291.445-.698.851-1.219 1.219a6.266 6.266 0 01-1.702.828c-.613.2-1.242.299-1.886.299-1.196 0-2.262-.26-3.197-.782a5.871 5.871 0 01-2.208-2.208c-.521-.935-.782-2.001-.782-3.197 0-1.211.26-2.285.782-3.22a5.705 5.705 0 012.208-2.185c.935-.537 2.001-.805 3.197-.805 1.211 0 2.277.268 3.197.805a5.546 5.546 0 012.185 2.185c.537.935.805 2.009.805 3.22v4.117c0 .583.107.997.322 1.242.215.245.49.368.828.368.583 0 1.096-.245 1.541-.736.445-.49.79-1.165 1.035-2.024.26-.859.391-1.848.391-2.967 0-1.503-.253-2.883-.759-4.14a9.664 9.664 0 00-2.139-3.266 9.664 9.664 0 00-3.266-2.139c-1.257-.506-2.637-.759-4.14-.759-1.503 0-2.883.253-4.14.759a9.664 9.664 0 00-3.266 2.139 9.664 9.664 0 00-2.139 3.266c-.49 1.257-.736 2.637-.736 4.14 0 1.503.245 2.883.736 4.14a9.664 9.664 0 002.139 3.266 9.386 9.386 0 003.266 2.116c1.257.506 2.637.759 4.14.759.72 0 1.472-.084 2.254-.253.797-.169 1.457-.376 1.978-.621.307-.153.56-.192.759-.115.2.092.299.291.299.598 0 .245-.23.506-.69.782-.445.276-1.066.506-1.863.69-.782.2-1.694.299-2.737.299zm0-6.854c.935 0 1.763-.207 2.484-.621a4.534 4.534 0 001.702-1.702c.414-.72.621-1.549.621-2.484 0-.95-.207-1.786-.621-2.507a4.534 4.534 0 00-1.702-1.702c-.72-.414-1.549-.621-2.484-.621s-1.763.207-2.484.621a4.534 4.534 0 00-1.702 1.702c-.414.72-.621 1.556-.621 2.507 0 .935.207 1.763.621 2.484.414.72.981 1.288 1.702 1.702.72.414 1.549.621 2.484.621z" fill="#4E3E30"/></svg>