<svg width="27" height="27" fill="none" xmlns="http://www.w3.org/2000/svg"><path d="M14.598 12.389a.42.42 0 00.105.278l8.372 9.549.634-.557-8.37-9.549a.422.422 0 00-.74.279z" fill="#4E3E30"/><path d="M0 8.596c0 5.182 4.075 8.279 8.016 8.279 1.135 0 2.387-.272 3.2-.673l1.907 3.815a.422.422 0 00.377.233h3.375v2.531l.005.096c.038.562.217.73.839.748h3.375v2.531c0 .11-.012.184-.02.235-.016.102-.045.293.103.458.152.17.345.163.514.156.06-.002.141-.005.247-.005h3.823A1.24 1.24 0 0027 25.76v-3.269c0-.3-.11-.59-.307-.818l-9.754-11.126c.11-.548.252-1.375.252-1.952C17.191 3.855 13.336 0 8.596 0S0 3.856 0 8.596zm16.348 0c0 .423-.102 1.147-.277 1.986a.418.418 0 00.095.365l9.89 11.282a.4.4 0 01.1.262v3.27a.396.396 0 01-.395.395h-3.823v-2.953a.421.421 0 00-.422-.422h-3.797v-2.953a.422.422 0 00-.422-.422H13.76l-1.993-3.986a.422.422 0 00-.625-.153c-.512.371-1.783.764-3.127.764-3.526 0-7.172-2.78-7.172-7.435C.844 4.322 4.322.844 8.596.844c4.275 0 7.752 3.478 7.752 7.752z" fill="#4E3E30"/><path d="M4.219 7.172a2.956 2.956 0 002.953 2.953 2.956 2.956 0 002.953-2.953 2.956 2.956 0 00-2.953-2.953 2.956 2.956 0 00-2.953 2.953zm5.062 0c0 1.163-.946 2.11-2.11 2.11a2.112 2.112 0 01-2.109-2.11c0-1.163.947-2.11 2.11-2.11 1.163 0 2.11.947 2.11 2.11z" fill="#4E3E30"/></svg>