<svg width="28" height="28" fill="none" xmlns="http://www.w3.org/2000/svg"><path d="M20.063 27.078C9.508 27.078.922 18.492.922 7.938A7.118 7.118 0 017.132.885a1.643 1.643 0 011.705.983l2.747 6.409a1.638 1.638 0 01-.135 1.545l-2.275 3.475a.538.538 0 00-.04.528 11.012 11.012 0 005.086 5.062.54.54 0 00.53-.043l3.422-2.283a1.635 1.635 0 011.557-.143l6.403 2.745a1.644 1.644 0 01.983 1.705 7.118 7.118 0 01-7.052 6.21zM7.334 1.966a.507.507 0 00-.065.004 6.022 6.022 0 00-5.253 5.968c0 9.95 8.095 18.047 18.047 18.047a6.022 6.022 0 005.967-5.254.544.544 0 00-.329-.563l-6.403-2.744a.546.546 0 00-.519.047l-3.423 2.283a1.636 1.636 0 01-1.611.118 12.111 12.111 0 01-5.593-5.567 1.636 1.636 0 01.107-1.607l2.275-3.475a.546.546 0 00.045-.515l-2.747-6.41a.547.547 0 00-.498-.332z" fill="#4E3E30"/></svg>