<svg width="768" height="305" viewBox="0 0 768 305" fill="none" xmlns="http://www.w3.org/2000/svg">
<path d="M1574.22 19.2405C1574.22 19.2405 1374.76 97.9674 1262.48 109.575C1150.2 121.183 1076.32 65.2332 1025.22 28.3546C974.124 -8.52404 817.016 -8.25392 820.684 29.7813C824.353 67.8165 948.379 53.359 962.463 114.528C965.561 127.981 966.534 136.072 964.384 148.559C954.717 204.733 882.162 110.659 817.951 84.9076C753.739 59.1563 645.718 37.1425 557.358 71.4922C493.066 96.4858 431.804 159.516 425.267 183.579C418.73 207.643 369.766 271.823 306.548 293.921C243.33 316.018 189.406 299.199 119.421 262.056C67.3765 234.435 0.781198 161.79 0.781198 161.79" stroke="black" stroke-width="1.5"/>
</svg>
