<svg width="818" height="536" viewBox="0 0 818 536" fill="none" xmlns="http://www.w3.org/2000/svg">
<path d="M816.711 1.40438C816.711 1.40438 684.109 106.02 606.616 141.693C529.123 177.366 472.592 155.704 433.653 142.012C394.714 128.319 284.89 166.898 290.768 192.999C296.645 219.101 382.103 178.536 397.278 218.513C400.616 227.306 402 232.811 401.585 242.2C399.718 284.435 340.796 235.387 293.657 232.797C246.519 230.207 169.074 240.975 110.286 286.946C67.5107 320.395 30.1667 380.104 27.6919 398.782C25.217 417.46 -3.42822 474.98 -45.705 506.111C-87.9818 537.243 -127.149 538.48 -179.316 529.214C-218.111 522.324 -271 487.031 -271 487.031" stroke="black" stroke-width="2"/>
</svg>
