<svg width="65" height="84" viewBox="0 0 65 84" fill="none" xmlns="http://www.w3.org/2000/svg">
<path d="M20.9057 61.6163L30.833 82.727C30.8658 82.7953 30.8803 82.8711 30.8749 82.9467C30.8695 83.0224 30.8445 83.0953 30.8023 83.1581C30.7601 83.221 30.7022 83.2715 30.6345 83.3047C30.5668 83.3379 30.4916 83.3526 30.4164 83.3473C29.1505 83.2439 27.8934 83.0506 26.6546 82.7687C24.0871 82.1934 21.6408 81.1655 19.4284 79.7324C17.2414 78.3021 15.3259 76.4891 13.7727 74.3792C12.5657 72.7369 11.5914 70.9334 10.8776 69.0207C10.8493 68.9466 10.8423 68.866 10.8574 68.7881C10.8725 68.7102 10.909 68.6382 10.9629 68.5802C12.6289 66.7632 14.4863 65.1342 16.5023 63.7221C17.7241 62.8652 19.0006 62.0904 20.3236 61.4026C20.3755 61.3765 20.4321 61.3614 20.49 61.3581C20.5479 61.3548 20.6058 61.3634 20.6603 61.3834C20.7148 61.4034 20.7646 61.4344 20.8068 61.4744C20.849 61.5145 20.8827 61.5627 20.9057 61.6163Z" fill="#C8A88F"/>
<path d="M54.816 67.4559C52.1341 64.3066 48.8192 61.7445 45.0822 59.9328C44.9779 59.8818 44.8979 59.7925 44.8592 59.6839C44.8205 59.5753 44.8262 59.4561 44.8752 59.3517L54.5093 39.2105C54.8159 38.5697 55.1986 38.6112 55.3479 39.3038C55.8441 41.5886 56.222 43.897 56.4802 46.2199C56.8197 49.1712 56.9833 52.1398 56.9703 55.1102C56.9795 59.2412 56.2803 63.3438 54.9024 67.2431L54.816 67.4663" fill="#C8A88F"/>
<path d="M49.2339 76.5714C46.0481 79.9168 41.8931 82.1523 37.3687 82.9554C36.3872 83.1406 35.3963 83.271 34.4005 83.3461C33.9908 83.3773 33.8002 83.0856 33.9754 82.7105L43.8591 61.6129C43.8842 61.5596 43.9195 61.5118 43.9629 61.4723C44.0063 61.4328 44.057 61.4024 44.1121 61.3828C44.1672 61.3632 44.2255 61.3548 44.2838 61.3581C44.3421 61.3614 44.3992 61.3762 44.4518 61.4019C48.0907 63.2096 51.2958 65.798 53.8434 68.9866C53.891 69.0536 53.9215 69.1315 53.9323 69.2132C53.9431 69.295 53.9338 69.3782 53.9053 69.4554C52.7769 72.0889 51.1953 74.4991 49.2339 76.574" fill="#C8A88F"/>
<path d="M42.9407 58.8859C41.5019 58.3298 40.0209 57.8855 38.5114 57.5571C38.3966 57.5323 38.2963 57.4642 38.2319 57.3676C38.1675 57.2709 38.1441 57.1534 38.1668 57.0401L45.8182 17.2846C45.9392 16.6538 46.3179 16.5866 46.6467 17.1398C49.7295 22.2856 52.178 27.7739 53.9404 33.4887C54.1482 34.1686 54.3428 34.8537 54.5322 35.5388C54.5542 35.641 54.5441 35.7474 54.5033 35.8439L43.5088 58.6662C43.4583 58.7651 43.3723 58.8422 43.2675 58.8827C43.1627 58.9233 43.0463 58.9244 42.9407 58.8859Z" fill="#C8A88F"/>
<path d="M36.475 57.077C35.5676 56.9508 34.6493 56.8644 33.7199 56.8177C33.6089 56.8137 33.5037 56.7662 33.4262 56.685C33.3486 56.6039 33.3046 56.4954 33.3034 56.382V0.815104C33.3034 0.244504 33.6336 0.0992043 34.0348 0.493504L34.1744 0.633505C37.812 4.2614 41.0776 8.2591 43.9204 12.5644C44.2073 13.0002 44.4892 13.4359 44.7685 13.8768C44.8223 13.9745 44.8437 14.0873 44.8295 14.1984L36.9575 56.7347C36.9343 56.8434 36.8716 56.9391 36.7821 57.0026C36.6926 57.0661 36.5829 57.0927 36.475 57.077Z" fill="#C8A88F"/>
<path d="M31.0666 56.8366C30.1559 56.8747 29.2571 56.9551 28.3702 57.078C28.2608 57.092 28.1502 57.0634 28.0607 56.9979C27.9711 56.9324 27.9093 56.8349 27.8876 56.725L19.9566 14.1104C19.9425 13.9981 19.9649 13.8841 20.0205 13.786C20.589 12.8932 21.1772 12.0099 21.7849 11.1362C24.4041 7.36651 27.358 3.84901 30.6096 0.627909L30.75 0.492909C31.1534 0.0984087 31.4829 0.246409 31.4829 0.814709V56.4006C31.4816 56.5137 31.4378 56.6219 31.3604 56.703C31.2829 56.7841 31.1777 56.832 31.0666 56.8366Z" fill="#C8A88F"/>
<path d="M18.956 17.218L26.6218 57.0748C26.6397 57.1736 26.6182 57.2754 26.5616 57.3589C26.505 57.4425 26.4177 57.5012 26.3181 57.5229C24.7566 57.8547 23.2252 58.3111 21.7391 58.8877C21.647 58.9228 21.5448 58.9227 21.4527 58.8874C21.3607 58.8522 21.2854 58.7843 21.2417 58.6971L10.2771 35.9207C10.2433 35.8392 10.2342 35.7497 10.2509 35.6632C10.3923 35.1482 10.5389 34.6332 10.6908 34.1182C12.4761 28.1566 15.0099 22.437 18.2335 17.0918C18.5294 16.6103 18.8513 16.6669 18.956 17.218Z" fill="#C8A88F"/>
<path d="M7.94631 51.2608C8.03541 49.4965 8.12711 47.6728 8.33941 45.9058C8.60671 43.6823 8.97791 41.4803 9.45311 39.2998C9.60251 38.611 9.97731 38.5723 10.2917 39.2069L19.9116 59.2056C19.9604 59.3098 19.9657 59.4286 19.9265 59.5366C19.8874 59.6446 19.8068 59.7332 19.702 59.7834C16.2162 61.4665 13.0958 63.8004 10.5144 66.6552C10.2367 66.9647 9.89601 66.9131 9.75981 66.5159C9.40341 65.4841 9.08631 64.4343 8.81111 63.3122C8.08001 60.3277 7.88341 57.3123 7.81531 53.7088V53.6726C7.86771 52.873 7.90701 52.0708 7.94631 51.2608Z" fill="#C8A88F"/>
<path d="M32.877 82.4749L42.3675 61.4299C42.3916 61.3764 42.4048 61.3184 42.4062 61.2595C42.4076 61.2006 42.3973 61.1421 42.3758 61.0874C42.3544 61.0328 42.3222 60.9831 42.2814 60.9416C42.2405 60.9002 42.1918 60.8676 42.1382 60.8461C39.0677 59.5993 35.7982 58.9445 32.4948 58.9149C29.1306 58.8879 25.7913 59.5067 22.6501 60.7392C22.5959 60.7607 22.5466 60.7934 22.5053 60.8353C22.4639 60.8771 22.4315 60.9273 22.41 60.9826C22.3884 61.0378 22.3783 61.0971 22.3802 61.1566C22.382 61.2161 22.3959 61.2745 22.4208 61.3283C25.648 68.3806 28.8752 75.4321 32.1024 82.4827C32.1362 82.5593 32.191 82.6242 32.2603 82.6695C32.3295 82.7147 32.4101 82.7384 32.4922 82.7376C32.5743 82.7367 32.6545 82.7115 32.7228 82.6648C32.7911 82.6182 32.8447 82.5522 32.877 82.4749Z" fill="#C8A88F"/>
<path d="M63.824 82.1265H0.961987C0.389887 82.1265 -0.0739136 82.5301 -0.0739136 83.0281V83.0574C-0.0739136 83.5554 0.389887 83.959 0.961987 83.959H63.824C64.396 83.959 64.86 83.5554 64.86 83.0574V83.0281C64.86 82.5301 64.396 82.1265 63.824 82.1265Z" fill="#C8A88F"/>
</svg>
