<svg width="46" height="46" viewBox="0 0 46 46" fill="none" xmlns="http://www.w3.org/2000/svg">
<g clip-path="url(#clip0_6_24)">
<path d="M23 8.22888C17.5786 8.22888 13.1429 12.6725 13.1429 18.1036C13.1429 23.5346 17.5786 27.9782 23 27.9782C28.4214 27.9782 32.8571 23.5346 32.8571 18.1036C32.8571 12.6725 28.4214 8.22888 23 8.22888ZM23 24.6867C21.7003 24.6867 20.4298 24.3006 19.3491 23.5772C18.2684 22.8539 17.4262 21.8257 16.9288 20.6228C16.4314 19.4199 16.3013 18.0963 16.5548 16.8193C16.8084 15.5423 17.4343 14.3693 18.3533 13.4486C19.2723 12.5279 20.4432 11.9009 21.718 11.6469C22.9927 11.3929 24.314 11.5233 25.5148 12.0215C26.7155 12.5198 27.7419 13.3636 28.4639 14.4462C29.186 15.5288 29.5714 16.8015 29.5714 18.1036C29.5662 19.8479 28.8722 21.5193 27.641 22.7528C26.4097 23.9862 24.7412 24.6815 23 24.6867Z" fill="#C8A88F"/>
<path d="M23 8.22888C17.5786 8.22888 13.1429 12.6725 13.1429 18.1036C13.1429 23.5346 17.5786 27.9782 23 27.9782C28.4214 27.9782 32.8571 23.5346 32.8571 18.1036C32.8571 12.6725 28.4214 8.22888 23 8.22888ZM23 24.6867C21.7003 24.6867 20.4298 24.3006 19.3491 23.5772C18.2684 22.8539 17.4262 21.8257 16.9288 20.6228C16.4314 19.4199 16.3013 18.0963 16.5548 16.8193C16.8084 15.5423 17.4343 14.3693 18.3533 13.4486C19.2723 12.5279 20.4432 11.9009 21.718 11.6469C22.9927 11.3929 24.314 11.5233 25.5148 12.0215C26.7155 12.5198 27.7419 13.3636 28.4639 14.4462C29.186 15.5288 29.5714 16.8015 29.5714 18.1036C29.5662 19.8479 28.8722 21.5193 27.641 22.7528C26.4097 23.9862 24.7412 24.6815 23 24.6867Z" stroke="#C8A88F"/>
<path d="M23 0C18.4704 -0.00064812 14.0414 1.33861 10.2685 3.84978C6.49571 6.36096 3.54706 9.93224 1.79243 14.1157C0.0378007 18.2991 -0.444678 22.9085 0.40551 27.3655C1.2557 31.8226 3.4007 35.929 6.57146 39.1695C7.57382 40.1821 8.67451 41.0919 9.85717 41.8856C13.5541 44.5188 18.0715 46 23 46C27.6966 45.9985 32.2812 44.5632 36.1429 41.8856C37.2939 41.0502 38.3913 40.143 39.4286 39.1695C42.5994 35.929 44.7444 31.8226 45.5946 27.3655C46.4447 22.9085 45.9623 18.2991 44.2076 14.1157C42.453 9.93224 39.5044 6.36096 35.7315 3.84978C31.9587 1.33861 27.5297 -0.00064812 23 0ZM23 42.7903C18.0715 42.7903 13.6357 40.9799 10.1857 38.0175C11.0888 35.0551 13.8 32.9156 17.0031 32.9156H29.0777C32.2817 32.9156 34.992 35.0551 35.896 38.0175C32.3634 40.9799 27.9277 42.7903 23 42.7903ZM38.3603 35.3843C37.5012 33.654 36.1772 32.1982 34.5374 31.1806C32.8975 30.163 31.0067 29.6239 29.0777 29.624H17.0031C15.0733 29.6194 13.1808 30.1566 11.5402 31.1748C9.89966 32.1929 8.57673 33.6512 7.72146 35.3843C4.84251 31.9189 3.27228 27.5494 3.28575 23.0409C3.28575 12.1788 12.1572 3.29156 23 3.29156C33.8429 3.29156 42.7143 12.1788 42.7143 23.0409C42.7181 27.5337 41.1809 31.8913 38.3603 35.3843Z" fill="#C8A88F"/>
<path d="M23 0C18.4704 -0.00064812 14.0414 1.33861 10.2685 3.84978C6.49571 6.36096 3.54706 9.93224 1.79243 14.1157C0.0378007 18.2991 -0.444678 22.9085 0.40551 27.3655C1.2557 31.8226 3.4007 35.929 6.57146 39.1695C7.57382 40.1821 8.67451 41.0919 9.85717 41.8856C13.5541 44.5188 18.0715 46 23 46C27.6966 45.9985 32.2812 44.5632 36.1429 41.8856C37.2939 41.0502 38.3913 40.143 39.4286 39.1695C42.5994 35.929 44.7444 31.8226 45.5946 27.3655C46.4447 22.9085 45.9623 18.2991 44.2076 14.1157C42.453 9.93224 39.5044 6.36096 35.7315 3.84978C31.9587 1.33861 27.5297 -0.00064812 23 0ZM23 42.7903C18.0715 42.7903 13.6357 40.9799 10.1857 38.0175C11.0888 35.0551 13.8 32.9156 17.0031 32.9156H29.0777C32.2817 32.9156 34.992 35.0551 35.896 38.0175C32.3634 40.9799 27.9277 42.7903 23 42.7903ZM38.3603 35.3843C37.5012 33.654 36.1772 32.1982 34.5374 31.1806C32.8975 30.163 31.0067 29.6239 29.0777 29.624H17.0031C15.0733 29.6194 13.1808 30.1566 11.5402 31.1748C9.89966 32.1929 8.57673 33.6512 7.72146 35.3843C4.84251 31.9189 3.27228 27.5494 3.28575 23.0409C3.28575 12.1788 12.1572 3.29156 23 3.29156C33.8429 3.29156 42.7143 12.1788 42.7143 23.0409C42.7181 27.5337 41.1809 31.8913 38.3603 35.3843Z" stroke="#C8A88F"/>
<g clip-path="url(#clip1_6_24)">
<path d="M158.594 -265.385C90.4195 -265.385 47.3918 -232.206 22.4102 -202.211C-2.55951 -232.206 -45.5872 -265.385 -113.785 -265.385C-229.87 -265.385 -307.846 -157.851 -307.846 -57.4174C-307.846 88.839 -27.0103 284.74 5.01279 306.596C10.1437 310.085 16.2053 311.951 22.4102 311.951C28.6152 311.951 34.6767 310.085 39.8077 306.596C71.8307 284.74 352.667 88.7918 352.667 -57.4174C352.667 -157.851 274.679 -265.385 158.594 -265.385ZM22.4102 243.482C-88.1785 164.822 -246.112 24.0969 -246.112 -57.4174C-246.112 -118.751 -200.112 -203.674 -113.773 -203.674C-35.2313 -203.674 -7.50156 -135.842 -6.44 -133.152C-4.21603 -127.343 -0.287689 -122.343 4.82941 -118.806C9.9465 -115.27 16.0132 -113.363 22.2333 -113.337H22.4102C28.6129 -113.359 34.6669 -115.238 39.7921 -118.732C44.9172 -122.226 48.8787 -127.174 51.1661 -132.94C52.3456 -135.842 80.04 -203.709 158.499 -203.709C244.862 -203.709 290.862 -118.786 290.862 -57.4528C290.862 23.9318 132.905 164.739 22.3041 243.446L22.4102 243.482Z" fill="black"/>
</g>
</g>
<defs>
<clipPath id="clip0_6_24">
<rect width="46" height="46" fill="white"/>
</clipPath>
<clipPath id="clip1_6_24">
<rect width="660.513" height="577.347" fill="white" transform="translate(-307.846 -265.385)"/>
</clipPath>
</defs>
</svg>
