<svg width="298" height="29" viewBox="0 0 298 29" fill="none" xmlns="http://www.w3.org/2000/svg">
<path d="M23.9885 25.9121C24.114 26.2286 24.177 26.5684 24.1736 26.911C24.1559 27.3034 23.9953 27.6739 23.7247 27.9469C23.5346 28.1299 23.3098 28.2696 23.065 28.3566C22.8201 28.4437 22.5606 28.4764 22.3029 28.4525C21.9848 28.4516 21.6753 28.3446 21.4196 28.1471C21.1638 27.9497 20.9752 27.6721 20.8812 27.3549L18.4552 21.2629H5.73037L3.29255 27.3549C3.19771 27.6709 3.00861 27.9471 2.75285 28.143C2.4971 28.339 2.18803 28.4445 1.87076 28.4443C1.6131 28.4681 1.35352 28.4355 1.10867 28.3484C0.863821 28.2613 0.639084 28.1218 0.448975 27.9387C0.178327 27.6657 0.0177782 27.2952 4.52441e-05 26.9028C-0.00195418 26.5599 0.0623347 26.2202 0.189079 25.9039L9.75141 2.39887C10.2004 1.33283 10.9237 0.799805 11.9215 0.799805H12.2956C13.2933 0.799805 14.0166 1.33416 14.4656 2.40294L23.9885 25.9121ZM17.1477 18.0196L12.1065 5.32158L7.04178 18.0113L17.1477 18.0196Z" fill="black"/>
<path d="M45.1044 25.2504C45.2671 25.4149 45.3958 25.6126 45.4825 25.831C45.5692 26.0495 45.6121 26.2841 45.6086 26.5206C45.6103 26.7516 45.566 26.9806 45.4786 27.1928C45.3911 27.4051 45.2624 27.5961 45.1005 27.7538C44.9401 27.9184 44.7499 28.0479 44.5409 28.1347C44.3319 28.2215 44.1084 28.2639 43.8835 28.2594H30.5994C30.2898 28.2636 29.9826 28.2016 29.6968 28.0771C29.4109 27.9527 29.1525 27.7685 28.9375 27.5359C28.7135 27.3114 28.5365 27.0412 28.4172 26.742C28.2979 26.4428 28.239 26.1211 28.2443 25.7971L28.264 2.59631C28.2602 2.36131 28.3014 2.12784 28.3853 1.90971C28.4691 1.69158 28.594 1.49314 28.7524 1.32607C28.9039 1.15807 29.0871 1.02462 29.2904 0.93407C29.4938 0.843519 29.7128 0.797865 29.9339 0.79994C30.1607 0.796986 30.3856 0.842472 30.5949 0.933668C30.8042 1.02486 30.9934 1.15981 31.1509 1.33019C31.3136 1.49473 31.4422 1.69235 31.5289 1.91081C31.6156 2.12928 31.6585 2.36399 31.6549 2.60043L31.6353 24.7077H43.8717C44.102 24.7041 44.3305 24.7505 44.5427 24.8439C44.7549 24.9373 44.9462 25.0757 45.1044 25.2504Z" fill="black"/>
<path d="M77.7294 1.60577C77.9593 1.84285 78.141 2.12601 78.2635 2.43824C78.386 2.75048 78.4467 3.08535 78.4421 3.42272L78.4225 26.7386C78.4251 26.9679 78.3832 27.1955 78.2992 27.4074C78.2153 27.6194 78.091 27.8114 77.9341 27.9718C77.7798 28.1348 77.5957 28.2635 77.3927 28.3504C77.1897 28.4373 76.972 28.4805 76.7526 28.4774C76.5277 28.4817 76.3043 28.4392 76.0954 28.3524C75.8864 28.2656 75.6962 28.1362 75.5357 27.9718C75.3751 27.8134 75.2474 27.6221 75.1607 27.4099C75.0739 27.1978 75.03 26.9693 75.0315 26.7386L75.0513 4.54082L66.3869 26.8332C66.1937 27.3182 65.8676 27.7329 65.4495 28.0253C65.0185 28.3253 64.5103 28.4816 63.9923 28.4733C63.4725 28.482 62.9625 28.3242 62.5312 28.0212C62.1152 27.7274 61.7907 27.313 61.5978 26.829L52.9728 4.52024L52.9531 26.718C52.9551 26.9488 52.9114 27.1775 52.8246 27.3897C52.7379 27.6019 52.6099 27.7931 52.449 27.9513C52.2882 28.1153 52.0979 28.2444 51.889 28.3312C51.6801 28.418 51.4569 28.4607 51.2321 28.4569C51.0124 28.4596 50.7944 28.4159 50.5913 28.3283C50.3883 28.2407 50.2043 28.111 50.0506 27.9471C49.893 27.7874 49.7686 27.5954 49.6853 27.3832C49.602 27.171 49.5614 26.9432 49.5662 26.7139V3.39803C49.5625 3.0608 49.6236 2.72621 49.7461 2.41411C49.8685 2.10201 50.0497 1.81873 50.2789 1.58108C50.4993 1.33627 50.7662 1.14219 51.0626 1.01124C51.3589 0.880288 51.6783 0.81535 52 0.820608H53.2366C53.7295 0.817918 54.2095 0.983989 54.6032 1.29335C55.0023 1.59196 55.3178 1.99641 55.517 2.46489L63.9963 24.5764L72.5071 2.47723C72.7061 2.00858 73.0232 1.60511 73.4247 1.30981C73.8196 1.00326 74.2991 0.838808 74.7913 0.841182H76.028C76.3468 0.838557 76.6627 0.905156 76.9556 1.03678C77.2485 1.16841 77.512 1.36218 77.7294 1.60577Z" fill="black"/>
<path d="M96.9373 0.668945C100.876 0.668945 104.042 1.98711 106.437 4.62344C108.758 7.19948 109.965 10.5593 110.06 14.7029C109.958 18.8437 108.745 22.2022 106.421 24.7782C104.026 27.4063 100.857 28.7176 96.9138 28.7121C92.9702 28.7067 89.8024 27.3899 87.4105 24.7618C85.0475 22.1556 83.8411 18.7944 83.7912 14.6783C83.8411 10.5675 85.0541 7.21047 87.4302 4.60703C89.8063 2.00359 92.9754 0.690869 96.9373 0.668945ZM96.9373 25.3948C99.9778 25.3948 102.374 24.3685 104.125 22.3159C105.824 20.3373 106.673 17.7982 106.673 14.6988C106.673 11.5993 105.828 9.06025 104.137 7.08163C102.393 5.0208 99.9988 3.99042 96.9531 3.99042C93.9075 3.99042 91.5116 5.01673 89.7656 7.06934C88.0669 9.04521 87.2162 11.5829 87.2136 14.6824C87.2109 17.7818 88.0577 20.3208 89.7538 22.2995C91.4867 24.3603 93.8747 25.3921 96.9177 25.3948H96.9373Z" fill="black"/>
<path d="M136.487 0.898161C136.714 0.895207 136.939 0.940692 137.148 1.03189C137.358 1.12309 137.547 1.25803 137.704 1.42841C137.866 1.59247 137.995 1.78941 138.081 2.00713C138.168 2.22484 138.211 2.45878 138.208 2.69453V26.0145C138.213 26.3507 138.15 26.6842 138.024 26.9936C137.898 27.303 137.711 27.5814 137.476 27.8109C137.248 28.0496 136.976 28.2382 136.677 28.3653C136.378 28.4924 136.058 28.5555 135.735 28.5508H135.286C134.9 28.556 134.519 28.4624 134.176 28.2782C133.832 28.094 133.537 27.8249 133.317 27.4944L118.851 5.64599V26.7791C118.854 27.0104 118.811 27.2398 118.723 27.4523C118.636 27.6648 118.506 27.8556 118.343 28.0123C118.183 28.1769 117.993 28.3064 117.784 28.3932C117.575 28.48 117.351 28.5224 117.126 28.5179C116.907 28.5207 116.689 28.4769 116.485 28.3893C116.282 28.3017 116.098 28.172 115.945 28.0082C115.788 27.8475 115.665 27.6554 115.581 27.4434C115.498 27.2315 115.457 27.004 115.46 26.775V3.45912C115.456 3.12176 115.516 2.78688 115.639 2.47465C115.761 2.16242 115.943 1.87926 116.173 1.64217C116.393 1.39695 116.66 1.20261 116.957 1.07163C117.253 0.940647 117.572 0.875935 117.894 0.881702H118.383C118.79 0.895582 119.188 1.00925 119.545 1.21349C119.902 1.41772 120.208 1.70679 120.438 2.05736L134.79 23.803V2.71094C134.785 2.47584 134.826 2.24222 134.91 2.02399C134.994 1.80576 135.119 1.6074 135.278 1.44075C135.431 1.26615 135.618 1.12749 135.827 1.03395C136.035 0.940407 136.26 0.894142 136.487 0.898161Z" fill="black"/>
<path d="M166.69 9.79023C166.167 8.17931 165.336 6.6957 164.249 5.42878C161.789 2.51018 158.482 1.05087 154.328 1.05087H146.845C146.624 1.04854 146.405 1.09408 146.202 1.18464C145.998 1.27521 145.815 1.40885 145.664 1.57705C145.505 1.74412 145.38 1.94255 145.297 2.16069C145.213 2.37882 145.171 2.61223 145.175 2.84724V26.5948C145.173 26.8241 145.215 27.0514 145.299 27.2633C145.383 27.4752 145.507 27.6673 145.664 27.828C145.814 27.9811 145.989 28.1062 146.179 28.1979C146.396 28.2894 146.627 28.3356 146.861 28.3336C147.133 28.3281 147.401 28.2637 147.648 28.1445C148.436 27.7335 148.531 26.6359 148.535 26.5825C148.535 19.1832 148.545 11.7743 148.566 4.35584H153.938C157.021 4.35584 159.507 5.30681 161.397 7.2087C163.235 9.11058 164.154 11.6017 164.154 14.682C164.154 17.7623 163.235 20.252 161.397 22.1511C159.512 24.0557 157.026 25.0149 153.938 25.0286H153.615C153.224 25.065 152.858 25.2461 152.584 25.5394C152.309 25.8326 152.144 26.2186 152.119 26.6277C152.116 27.0583 152.268 27.4743 152.545 27.7932C152.823 28.1122 153.204 28.3109 153.615 28.3501H154.352C158.497 28.3501 161.804 26.8894 164.272 23.9681C165.362 22.703 166.193 21.2188 166.714 19.6066C167.236 18.0276 167.502 16.3688 167.502 14.6984C167.494 13.0267 167.22 11.3681 166.69 9.79023Z" fill="black"/>
<path d="M206.039 23.442C206.305 23.3234 206.594 23.2699 206.882 23.2858C207.06 23.2852 207.235 23.325 207.396 23.4024C207.558 23.4797 207.701 23.5929 207.816 23.7338C208.069 24.0136 208.21 24.3845 208.209 24.7698C208.231 25.0742 208.164 25.3784 208.017 25.6424C207.87 25.9065 207.65 26.118 207.386 26.2496C206.187 26.9394 204.929 27.5132 203.629 27.9638C202.081 28.4641 200.465 28.7001 198.844 28.6626C197.077 28.675 195.323 28.349 193.669 27.7007C192.113 27.0881 190.699 26.1366 189.522 24.9095C187.033 22.3554 185.791 18.9298 185.796 14.6327C185.802 10.3357 187.05 6.91008 189.542 4.35596C191.96 1.85939 195.075 0.613863 198.887 0.619344C200.502 0.585618 202.111 0.824362 203.653 1.32637C204.706 1.67498 205.731 2.11217 206.717 2.6336C207.206 2.86385 207.644 3.1969 208.005 3.61195C208.164 3.89562 208.242 4.22084 208.229 4.5492C208.226 4.92627 208.085 5.28781 207.835 5.56042C207.72 5.70152 207.576 5.81464 207.414 5.89201C207.252 5.96937 207.076 6.00911 206.898 6.00848C206.611 6.02446 206.324 5.971 206.059 5.85227C205.079 5.31176 204.054 4.86728 202.995 4.52452C201.724 4.15514 200.407 3.98339 199.088 4.01479C197.642 3.99137 196.207 4.27094 194.866 4.83693C193.671 5.34204 192.596 6.11366 191.716 7.09782C190.046 8.99149 189.21 11.5004 189.207 14.6246C189.204 17.7487 190.037 20.2589 191.704 22.1553C193.523 24.2107 196.027 25.2398 199.214 25.2425C200.49 25.2707 201.763 25.1017 202.991 24.741C204.043 24.4049 205.063 23.9701 206.039 23.442Z" fill="black"/>
<path d="M258.456 25.4929C258.607 25.6484 258.726 25.8342 258.807 26.039C258.887 26.2439 258.927 26.4636 258.924 26.685C258.929 26.9036 258.89 27.1209 258.809 27.3227C258.728 27.5245 258.608 27.7064 258.456 27.8565C258.304 28.0085 258.125 28.1278 257.929 28.2075C257.733 28.2872 257.524 28.3258 257.314 28.321H242.348C242.128 28.3247 241.91 28.2814 241.707 28.1938C241.503 28.1061 241.32 27.9759 241.166 27.8113C241.01 27.6506 240.886 27.4585 240.803 27.2465C240.72 27.0346 240.679 26.8072 240.682 26.5781V2.90044C240.678 2.666 240.719 2.43306 240.803 2.21554C240.887 1.99802 241.012 1.80034 241.17 1.63431C241.321 1.4649 241.504 1.33051 241.707 1.23985C241.911 1.14919 242.131 1.10433 242.352 1.10818H257.341C257.553 1.10413 257.763 1.14543 257.959 1.22957C258.155 1.31371 258.332 1.43888 258.479 1.59733C258.63 1.75286 258.75 1.93864 258.83 2.14349C258.911 2.34833 258.951 2.56804 258.948 2.78945C258.951 3.0073 258.912 3.22351 258.831 3.42447C258.75 3.62542 258.631 3.80672 258.479 3.95687C258.329 4.11077 258.15 4.23155 257.954 4.31204C257.758 4.39254 257.548 4.43112 257.337 4.4255H244.069V13.058H255.994C256.206 13.0539 256.416 13.0953 256.612 13.1794C256.808 13.2635 256.985 13.3887 257.132 13.5472C257.284 13.7008 257.404 13.8857 257.484 14.0902C257.564 14.2947 257.603 14.5143 257.597 14.7351C257.603 14.9535 257.564 15.1707 257.484 15.3725C257.404 15.5743 257.284 15.7564 257.132 15.9067C256.981 16.0599 256.803 16.1799 256.606 16.2597C256.41 16.3395 256.201 16.3774 255.99 16.3712H244.069V25.0325H257.337C257.754 25.0255 258.156 25.1911 258.456 25.4929Z" fill="black"/>
<path d="M280.147 0.919396C280.584 0.915536 281.009 1.05981 281.36 1.33047C281.712 1.59179 281.969 1.97 282.089 2.40335L288.39 23.8612L294.692 2.3335C294.967 1.40174 295.528 0.934481 296.373 0.93174C296.808 0.91476 297.232 1.0755 297.555 1.37979C297.691 1.50073 297.801 1.65046 297.878 1.81911C297.954 1.98776 297.996 2.17149 298 2.35814C298.004 2.67974 297.967 3.00051 297.889 3.31185L290.544 26.7922C290.151 27.9596 289.41 28.5433 288.339 28.5433C287.844 28.5441 287.363 28.3719 286.972 28.0541C286.569 27.738 286.274 27.2937 286.133 26.7881L280.131 6.88814L274.098 26.7757C273.958 27.2819 273.663 27.7265 273.259 28.0419C272.869 28.3596 272.387 28.5318 271.892 28.531C270.821 28.531 270.085 27.9432 269.691 26.7716L262.393 3.28305C262.316 2.9703 262.279 2.64823 262.283 2.32527C262.289 2.13924 262.332 1.95654 262.409 1.78881C262.486 1.62107 262.596 1.47198 262.732 1.35104C263.034 1.05275 263.438 0.891675 263.854 0.902987C264.259 0.880092 264.659 1.00918 264.981 1.26699C265.304 1.5248 265.527 1.89431 265.611 2.30882L271.873 23.8489L278.205 2.39929C278.322 1.96448 278.58 1.58529 278.934 1.32635C279.286 1.05716 279.711 0.914347 280.147 0.919396Z" fill="black"/>
<path d="M227.098 17.564C228.698 17.3811 230.238 16.8187 231.599 15.9197C232.556 15.341 233.387 14.5597 234.037 13.626C234.842 12.4029 235.31 10.9732 235.391 9.49199C235.472 8.01076 235.163 6.53462 234.498 5.22373C234.11 4.49062 233.596 3.83843 232.981 3.2999C231.272 1.7899 228.744 1.0349 225.396 1.0349H216.854C216.633 1.03105 216.413 1.07591 216.209 1.16657C216.006 1.25723 215.823 1.39166 215.672 1.56108C215.362 1.90351 215.192 2.3596 215.2 2.83127V26.735C215.196 26.963 215.237 27.1894 215.318 27.4011C215.399 27.6128 215.519 27.8055 215.672 27.9682C215.824 28.1347 216.008 28.266 216.211 28.3538C216.415 28.4416 216.634 28.4839 216.854 28.4779C217.073 28.4793 217.291 28.4349 217.494 28.3474C217.697 28.2599 217.881 28.1309 218.035 27.9682C218.193 27.8082 218.318 27.6164 218.403 27.4044C218.488 27.1924 218.53 26.9647 218.528 26.735V4.39336H224.979C227.518 4.39336 229.375 4.83594 230.551 5.72111C231.528 6.50214 232.017 7.67371 232.017 9.23578C232.031 10.1005 231.82 10.9531 231.406 11.7022C231.053 12.3177 230.575 12.8441 230.004 13.2437C228.582 14.3043 227.046 14.407 226.105 14.4769C225.465 14.5205 224.823 14.4999 224.187 14.4153C223.865 14.3368 223.529 14.3525 223.215 14.4605C222.901 14.5686 222.621 14.7648 222.407 15.0277C222.159 15.3635 222.025 15.7754 222.025 16.1993C222.025 16.6231 222.159 17.0351 222.407 17.3708L232.588 27.997C232.887 28.3048 233.29 28.4773 233.71 28.4773C234.13 28.4773 234.533 28.3048 234.832 27.997C234.982 27.8439 235.101 27.6613 235.182 27.4598C235.263 27.2583 235.305 27.0419 235.305 26.8234C235.305 26.6048 235.263 26.3885 235.182 26.187C235.101 25.9855 234.982 25.8028 234.832 25.6498L227.098 17.564Z" fill="black"/>
</svg>
