<svg width="130" height="77" viewBox="0 0 130 77" fill="none" xmlns="http://www.w3.org/2000/svg">
<path d="M58.1639 43.6997L63.7749 55.7406C63.7935 55.7795 63.8017 55.8227 63.7986 55.8659C63.7956 55.9091 63.7814 55.9506 63.7576 55.9865C63.7337 56.0223 63.701 56.0512 63.6627 56.0701C63.6245 56.089 63.582 56.0974 63.5395 56.0944C62.824 56.0354 62.1135 55.9251 61.4132 55.7644C59.962 55.4362 58.5793 54.8499 57.3289 54.0326C56.0927 53.2167 55.0101 52.1827 54.1322 50.9792C53.45 50.0425 52.8992 49.0139 52.4958 47.9229C52.4798 47.8807 52.4758 47.8347 52.4844 47.7902C52.4929 47.7458 52.5136 47.7047 52.544 47.6717C53.4857 46.6353 54.5355 45.7062 55.675 44.9008C56.3656 44.412 57.0871 43.9701 57.8349 43.5778C57.8642 43.5629 57.8962 43.5543 57.9289 43.5524C57.9616 43.5505 57.9944 43.5554 58.0251 43.5668C58.0559 43.5782 58.0841 43.5959 58.1079 43.6187C58.1318 43.6416 58.1508 43.6691 58.1639 43.6997Z" fill="#312A25"/>
<path d="M77.3306 47.0303C75.8147 45.234 73.9411 43.7727 71.8289 42.7393C71.7699 42.7103 71.7247 42.6593 71.7028 42.5974C71.681 42.5355 71.6842 42.4675 71.7119 42.4079L77.1572 30.92C77.3306 30.5545 77.5468 30.5781 77.6313 30.9732C77.9117 32.2764 78.1253 33.593 78.2712 34.9179C78.4631 36.6013 78.5556 38.2944 78.5482 39.9887C78.5534 42.3449 78.1582 44.6849 77.3794 46.9089L77.3306 47.0362" fill="#312A25"/>
<path d="M74.1758 52.2296C72.3752 54.1377 70.0267 55.4128 67.4694 55.8708C66.9146 55.9765 66.3545 56.0509 65.7917 56.0937C65.5602 56.1115 65.4524 55.9451 65.5514 55.7312L71.1379 43.6977C71.1521 43.6673 71.1721 43.64 71.1966 43.6175C71.2211 43.595 71.2498 43.5777 71.2809 43.5665C71.312 43.5553 71.345 43.5505 71.378 43.5524C71.4109 43.5543 71.4432 43.5627 71.4729 43.5773C73.5297 44.6084 75.3412 46.0848 76.7812 47.9034C76.8081 47.9417 76.8254 47.9861 76.8314 48.0327C76.8375 48.0793 76.8323 48.1268 76.8162 48.1709C76.1784 49.6729 75.2844 51.0476 74.1758 52.2311" fill="#312A25"/>
<path d="M70.6186 42.1424C69.8054 41.8252 68.9683 41.5718 68.1151 41.3845C68.0502 41.3703 67.9935 41.3315 67.9571 41.2764C67.9207 41.2213 67.9075 41.1542 67.9203 41.0896L72.245 18.4142C72.3134 18.0545 72.5275 18.0161 72.7133 18.3317C74.4558 21.2667 75.8397 24.397 76.8358 27.6566C76.9533 28.0444 77.0633 28.4351 77.1703 28.8259C77.1827 28.8842 77.1771 28.9449 77.154 28.9999L70.9397 42.0171C70.9111 42.0735 70.8626 42.1175 70.8033 42.1406C70.7441 42.1637 70.6783 42.1643 70.6186 42.1424Z" fill="#312A25"/>
<path d="M66.964 41.1107C66.4512 41.0387 65.9321 40.9894 65.4068 40.9627C65.3441 40.9604 65.2846 40.9333 65.2408 40.8871C65.1969 40.8408 65.1721 40.7789 65.1714 40.7142V9.0205C65.1714 8.69505 65.358 8.6122 65.5848 8.83707L65.6637 8.91696C67.7197 10.9862 69.5655 13.2664 71.1723 15.722C71.3345 15.9705 71.4938 16.219 71.6517 16.4705C71.6821 16.5262 71.6942 16.5906 71.6861 16.654L67.2368 40.9154C67.2236 40.9774 67.1882 41.032 67.1376 41.0682C67.087 41.1044 67.025 41.1196 66.964 41.1107Z" fill="#312A25"/>
<path d="M63.9074 40.9735C63.3926 40.9952 62.8846 41.0411 62.3833 41.1112C62.3215 41.1192 62.259 41.1028 62.2084 41.0655C62.1578 41.0282 62.1228 40.9726 62.1105 40.9099L57.6278 16.6037C57.6198 16.5397 57.6325 16.4747 57.6639 16.4187C57.9853 15.9095 58.3177 15.4057 58.6612 14.9074C60.1416 12.7572 61.8112 10.7509 63.6491 8.91372L63.7284 8.83675C63.9564 8.61175 64.1426 8.69612 64.1426 9.0203V40.7249C64.142 40.7893 64.1172 40.851 64.0734 40.8973C64.0296 40.9436 63.9702 40.9709 63.9074 40.9735Z" fill="#312A25"/>
<path d="M57.0621 18.3762L61.3949 41.1094C61.4051 41.1658 61.3929 41.2238 61.3609 41.2715C61.3289 41.3191 61.2796 41.3526 61.2233 41.365C60.3407 41.5542 59.4751 41.8145 58.6351 42.1434C58.5831 42.1635 58.5253 42.1634 58.4733 42.1433C58.4213 42.1232 58.3787 42.0844 58.354 42.0347L52.1566 29.0437C52.1375 28.9972 52.1324 28.9462 52.1418 28.8969C52.2217 28.6031 52.3046 28.3094 52.3905 28.0156C53.3995 24.6153 54.8317 21.353 56.6537 18.3043C56.8209 18.0296 57.0029 18.0619 57.0621 18.3762Z" fill="#312A25"/>
<path d="M50.8392 37.7931C50.8896 36.7868 50.9414 35.7466 51.0614 34.7388C51.2124 33.4706 51.4223 32.2146 51.6909 30.9709C51.7753 30.578 51.9871 30.556 52.1649 30.9179L57.6022 42.3246C57.6298 42.384 57.6328 42.4518 57.6106 42.5134C57.5885 42.575 57.5429 42.6255 57.4837 42.6541C55.5135 43.6141 53.7498 44.9453 52.2907 46.5736C52.1337 46.7501 51.9412 46.7207 51.8642 46.4941C51.6627 45.9056 51.4835 45.3068 51.328 44.6668C50.9147 42.9646 50.8036 41.2447 50.7651 39.1893V39.1687C50.7948 38.7126 50.817 38.2551 50.8392 37.7931Z" fill="#312A25"/>
<path d="M64.9307 55.5967L70.2949 43.5933C70.3085 43.5628 70.3159 43.5297 70.3167 43.4961C70.3176 43.4625 70.3117 43.4291 70.2996 43.3979C70.2875 43.3668 70.2693 43.3385 70.2462 43.3148C70.2231 43.2911 70.1955 43.2726 70.1653 43.2603C68.4298 42.5491 66.5818 42.1757 64.7147 42.1588C62.8131 42.1434 60.9257 42.4963 59.1503 43.1994C59.1196 43.2116 59.0917 43.2302 59.0684 43.2541C59.045 43.278 59.0267 43.3066 59.0145 43.3381C59.0024 43.3697 58.9966 43.4035 58.9977 43.4374C58.9987 43.4713 59.0066 43.5046 59.0207 43.5353C60.8447 47.5578 62.6688 51.5797 64.4929 55.6012C64.512 55.6449 64.543 55.6819 64.5821 55.7077C64.6212 55.7335 64.6668 55.747 64.7132 55.7465C64.7596 55.7461 64.8049 55.7317 64.8435 55.705C64.8821 55.6784 64.9124 55.6408 64.9307 55.5967Z" fill="#312A25"/>
<path d="M82.4225 55.3982H46.8916C46.5683 55.3982 46.3062 55.6284 46.3062 55.9125V55.9292C46.3062 56.2132 46.5683 56.4434 46.8916 56.4434H82.4225C82.7459 56.4434 83.008 56.2132 83.008 55.9292V55.9125C83.008 55.6284 82.7459 55.3982 82.4225 55.3982Z" fill="#312A25"/>
<path d="M10.4645 75.804C10.5193 75.9392 10.5467 76.0844 10.5453 76.2308C10.5375 76.3984 10.4675 76.5567 10.3494 76.6733C10.2665 76.7515 10.1685 76.8112 10.0617 76.8484C9.95485 76.8856 9.84161 76.8995 9.72921 76.8893C9.59044 76.8889 9.45544 76.8432 9.34387 76.7589C9.2323 76.6745 9.15003 76.5559 9.10903 76.4204L8.05073 73.8177H2.49976L1.43631 76.4204C1.39494 76.5554 1.31245 76.6734 1.20088 76.7571C1.08931 76.8408 0.954485 76.8859 0.816085 76.8858C0.703686 76.896 0.590446 76.8821 0.483636 76.8449C0.376825 76.8077 0.278788 76.748 0.195857 76.6698C0.0777918 76.5532 0.00775538 76.3949 1.97369e-05 76.2272C-0.000852475 76.0808 0.0271923 75.9356 0.0824819 75.8005L4.25387 65.7584C4.44972 65.3029 4.76527 65.0752 5.2005 65.0752H5.36371C5.79894 65.0752 6.11449 65.3035 6.31035 65.7601L10.4645 75.804ZM7.48034 72.432L5.28125 67.007L3.07184 72.4285L7.48034 72.432Z" fill="#312A25"/>
<path d="M19.6768 75.5213C19.7478 75.5916 19.8039 75.676 19.8417 75.7693C19.8796 75.8627 19.8983 75.9629 19.8967 76.064C19.8975 76.1627 19.8782 76.2605 19.84 76.3512C19.8019 76.4419 19.7457 76.5235 19.6751 76.5908C19.6051 76.6611 19.5221 76.7165 19.431 76.7536C19.3398 76.7907 19.2423 76.8088 19.1442 76.8068H13.3493C13.2142 76.8086 13.0802 76.7821 12.9555 76.729C12.8308 76.6758 12.7181 76.5971 12.6243 76.4977C12.5266 76.4018 12.4494 76.2864 12.3973 76.1585C12.3453 76.0307 12.3196 75.8933 12.3219 75.7549L12.3305 65.8427C12.3289 65.7423 12.3468 65.6426 12.3834 65.5494C12.42 65.4562 12.4745 65.3714 12.5436 65.3C12.6097 65.2283 12.6896 65.1712 12.7783 65.1326C12.867 65.0939 12.9625 65.0744 13.059 65.0753C13.1579 65.074 13.256 65.0934 13.3473 65.1324C13.4386 65.1713 13.5212 65.229 13.5898 65.3018C13.6608 65.3721 13.717 65.4565 13.7548 65.5499C13.7926 65.6432 13.8113 65.7435 13.8097 65.8445L13.8012 75.2894H19.1391C19.2395 75.2879 19.3392 75.3077 19.4318 75.3476C19.5244 75.3875 19.6078 75.4467 19.6768 75.5213Z" fill="#312A25"/>
<path d="M33.9069 65.4194C34.0072 65.5207 34.0865 65.6417 34.1399 65.7751C34.1933 65.9085 34.2198 66.0516 34.2178 66.1957L34.2093 76.157C34.2104 76.255 34.1921 76.3522 34.1555 76.4427C34.1189 76.5333 34.0647 76.6153 33.9962 76.6839C33.9289 76.7535 33.8486 76.8085 33.7601 76.8456C33.6715 76.8827 33.5765 76.9012 33.4808 76.8999C33.3827 76.9017 33.2853 76.8836 33.1941 76.8465C33.103 76.8094 33.02 76.7541 32.9499 76.6839C32.8799 76.6162 32.8242 76.5345 32.7864 76.4438C32.7485 76.3532 32.7294 76.2556 32.73 76.157L32.7386 66.6734L28.959 76.1974C28.8747 76.4046 28.7324 76.5818 28.55 76.7067C28.362 76.8349 28.1404 76.9017 27.9144 76.8981C27.6876 76.9018 27.4652 76.8344 27.277 76.705C27.0955 76.5795 26.954 76.4024 26.8698 76.1956L23.1073 66.6646L23.0987 76.1482C23.0996 76.2468 23.0805 76.3445 23.0427 76.4352C23.0049 76.5258 22.949 76.6075 22.8788 76.6751C22.8087 76.7452 22.7257 76.8003 22.6345 76.8374C22.5434 76.8745 22.446 76.8927 22.348 76.8911C22.2521 76.8923 22.157 76.8736 22.0685 76.8362C21.9799 76.7987 21.8996 76.7433 21.8326 76.6733C21.7638 76.6051 21.7096 76.5231 21.6732 76.4324C21.6369 76.3418 21.6192 76.2444 21.6213 76.1465V66.1851C21.6196 66.0411 21.6463 65.8981 21.6997 65.7648C21.7532 65.6314 21.8322 65.5104 21.9322 65.4089C22.0283 65.3043 22.1448 65.2214 22.274 65.1654C22.4033 65.1095 22.5426 65.0817 22.683 65.084H23.2224C23.4374 65.0828 23.6468 65.1538 23.8186 65.286C23.9927 65.4135 24.1303 65.5863 24.2172 65.7865L27.9161 75.2332L31.6288 65.7918C31.7156 65.5915 31.8539 65.4192 32.0291 65.293C32.2013 65.162 32.4105 65.0918 32.6252 65.0928H33.1647C33.3038 65.0917 33.4416 65.1201 33.5694 65.1763C33.6971 65.2326 33.8121 65.3154 33.9069 65.4194Z" fill="#312A25"/>
<path d="M42.2875 65.019C44.0055 65.019 45.3869 65.5822 46.4314 66.7085C47.4439 67.8091 47.9708 69.2445 48.012 71.0148C47.9673 72.7839 47.4382 74.2187 46.4245 75.3193C45.38 76.4421 43.9975 77.0024 42.2772 77C40.5569 76.9977 39.175 76.4351 38.1316 75.3123C37.1008 74.1988 36.5745 72.7628 36.5527 71.0043C36.5745 69.248 37.1036 67.8138 38.1402 66.7015C39.1767 65.5892 40.5592 65.0284 42.2875 65.019ZM42.2875 75.5827C43.6138 75.5827 44.659 75.1443 45.4229 74.2673C46.164 73.422 46.5345 72.3372 46.5345 71.013C46.5345 69.6888 46.1657 68.6041 45.4281 67.7588C44.6676 66.8783 43.623 66.4381 42.2944 66.4381C40.9658 66.4381 39.9206 66.8766 39.159 67.7535C38.4179 68.5977 38.0468 69.6818 38.0457 71.006C38.0445 72.3302 38.4139 73.415 39.1538 74.2603C39.9097 75.1408 40.9515 75.5816 42.2789 75.5827H42.2875Z" fill="#312A25"/>
<path d="M59.5399 65.1174C59.6388 65.1162 59.737 65.1356 59.8283 65.1745C59.9196 65.2135 60.0021 65.2712 60.0707 65.344C60.1415 65.414 60.1975 65.4982 60.2353 65.5912C60.2731 65.6842 60.292 65.7842 60.2907 65.8849V75.8479C60.2927 75.9916 60.2654 76.1341 60.2104 76.2662C60.1553 76.3984 60.0738 76.5174 59.9711 76.6154C59.8717 76.7174 59.7533 76.798 59.6228 76.8523C59.4924 76.9066 59.3526 76.9335 59.2117 76.9315H59.0159C58.8475 76.9337 58.6812 76.8937 58.5315 76.8151C58.3817 76.7364 58.2531 76.6214 58.1569 76.4802L51.8465 67.1458V76.1746C51.8479 76.2734 51.8289 76.3714 51.7907 76.4622C51.7525 76.553 51.696 76.6345 51.6249 76.7015C51.5549 76.7718 51.472 76.8271 51.3808 76.8642C51.2896 76.9013 51.1921 76.9194 51.094 76.9175C50.9982 76.9186 50.9031 76.9 50.8145 76.8625C50.7259 76.8251 50.6457 76.7697 50.5786 76.6997C50.5104 76.6311 50.4565 76.549 50.4201 76.4584C50.3838 76.3679 50.3658 76.2707 50.3673 76.1728V66.2115C50.3653 66.0674 50.3918 65.9243 50.4452 65.7909C50.4987 65.6575 50.5779 65.5366 50.6783 65.4353C50.7743 65.3305 50.8907 65.2475 51.02 65.1915C51.1493 65.1356 51.2887 65.1079 51.4291 65.1104H51.6421C51.8197 65.1163 51.9933 65.1649 52.1491 65.2521C52.3049 65.3394 52.4385 65.4629 52.5389 65.6127L58.7994 74.9031V65.8919C58.7975 65.7914 58.8153 65.6916 58.8519 65.5984C58.8885 65.5052 58.9431 65.4204 59.0124 65.3492C59.0793 65.2746 59.1609 65.2154 59.2518 65.1754C59.3427 65.1355 59.4409 65.1157 59.5399 65.1174Z" fill="#312A25"/>
<path d="M72.7158 68.9162C72.4874 68.2279 72.125 67.5941 71.6506 67.0528C70.5774 65.8059 69.1348 65.1824 67.3229 65.1824H64.0586C63.9622 65.1814 63.8666 65.2009 63.7779 65.2396C63.6891 65.2783 63.6093 65.3354 63.5432 65.4072C63.4741 65.4786 63.4197 65.5634 63.3831 65.6566C63.3465 65.7498 63.3285 65.8495 63.3302 65.9499V76.0956C63.3292 76.1936 63.3476 76.2907 63.3842 76.3812C63.4208 76.4717 63.4749 76.5538 63.5432 76.6225C63.6089 76.6879 63.685 76.7413 63.7682 76.7805C63.8626 76.8196 63.9636 76.8393 64.0655 76.8385C64.1842 76.8361 64.3012 76.8086 64.4091 76.7577C64.7527 76.5821 64.7939 76.1132 64.7956 76.0903C64.7956 72.9291 64.8002 69.7638 64.8094 66.5944H67.1528C68.4975 66.5944 69.5821 67.0007 70.4067 67.8132C71.2085 68.6258 71.6094 69.6901 71.6094 71.0061C71.6094 72.3221 71.2085 73.3857 70.4067 74.1971C69.5844 75.0108 68.4997 75.4206 67.1528 75.4265H67.0119C66.8413 75.442 66.6817 75.5194 66.5619 75.6447C66.4422 75.77 66.3703 75.9349 66.3591 76.1097C66.3579 76.2936 66.4243 76.4713 66.5452 76.6076C66.6661 76.7439 66.8327 76.8288 67.0119 76.8455H67.3332C69.1417 76.8455 70.5843 76.2215 71.6609 74.9734C72.1364 74.4329 72.4989 73.7988 72.7261 73.11C72.9539 72.4354 73.07 71.7267 73.0697 71.0131C73.0662 70.2989 72.9466 69.5903 72.7158 68.9162Z" fill="#312A25"/>
<path d="M89.8805 74.7485C89.9964 74.6978 90.1222 74.675 90.2481 74.6818C90.3255 74.6815 90.4021 74.6985 90.4724 74.7316C90.5427 74.7646 90.6051 74.813 90.6553 74.8732C90.766 74.9927 90.8275 75.1512 90.8271 75.3158C90.8364 75.4458 90.8072 75.5758 90.7431 75.6886C90.6791 75.8014 90.5832 75.8918 90.4681 75.948C89.9447 76.2427 89.3961 76.4879 88.8291 76.6804C88.1535 76.8941 87.4486 76.9949 86.7416 76.9789C85.9709 76.9842 85.2057 76.8449 84.4841 76.568C83.8051 76.3062 83.1884 75.8997 82.6751 75.3755C81.5893 74.2843 81.0475 72.8207 81.0498 70.9849C81.0521 69.1491 81.5967 67.6855 82.6837 66.5943C83.7385 65.5277 85.0975 64.9956 86.7605 64.9979C87.4649 64.9835 88.1669 65.0855 88.8394 65.3C89.2989 65.4489 89.7459 65.6357 90.176 65.8585C90.3893 65.9568 90.5806 66.0991 90.7378 66.2765C90.8071 66.3977 90.8411 66.5366 90.8357 66.6769C90.8342 66.838 90.7728 66.9924 90.6639 67.1089C90.6134 67.1692 90.5507 67.2175 90.4801 67.2506C90.4095 67.2836 90.3327 67.3006 90.255 67.3003C90.1296 67.3072 90.0044 67.2843 89.8891 67.2336C89.4616 67.0027 89.0142 66.8128 88.5524 66.6663C87.9979 66.5085 87.4236 66.4351 86.8482 66.4486C86.2174 66.4386 85.5912 66.558 85.0064 66.7998C84.4849 67.0156 84.0159 67.3453 83.632 67.7657C82.9036 68.5748 82.5388 69.6467 82.5376 70.9814C82.5365 72.3161 82.8996 73.3886 83.6269 74.1988C84.4206 75.0769 85.5127 75.5166 86.9031 75.5177C87.4597 75.5298 88.0149 75.4576 88.5507 75.3035C89.0094 75.1599 89.4545 74.9741 89.8805 74.7485Z" fill="#312A25"/>
<path d="M112.746 75.6248C112.812 75.6913 112.864 75.7706 112.899 75.8582C112.934 75.9457 112.951 76.0396 112.95 76.1341C112.952 76.2276 112.935 76.3204 112.9 76.4066C112.865 76.4928 112.812 76.5705 112.746 76.6347C112.68 76.6996 112.601 76.7506 112.516 76.7846C112.43 76.8187 112.339 76.8352 112.248 76.8331H105.719C105.623 76.8347 105.528 76.8162 105.439 76.7787C105.351 76.7413 105.27 76.6857 105.204 76.6153C105.135 76.5467 105.081 76.4646 105.045 76.3741C105.009 76.2835 104.991 76.1863 104.992 76.0885V65.9726C104.99 65.8725 105.008 65.7729 105.045 65.68C105.082 65.5871 105.136 65.5026 105.205 65.4317C105.271 65.3593 105.351 65.3019 105.44 65.2632C105.528 65.2244 105.624 65.2053 105.721 65.2069H112.26C112.352 65.2052 112.444 65.2228 112.529 65.2588C112.614 65.2947 112.692 65.3482 112.756 65.4159C112.822 65.4823 112.874 65.5617 112.909 65.6492C112.944 65.7367 112.962 65.8306 112.961 65.9252C112.962 66.0183 112.945 66.1106 112.909 66.1965C112.874 66.2823 112.822 66.3598 112.756 66.424C112.69 66.4897 112.612 66.5413 112.527 66.5757C112.441 66.6101 112.35 66.6266 112.258 66.6242H106.47V70.3122H111.672C111.764 70.3105 111.856 70.3282 111.941 70.3641C112.027 70.4001 112.104 70.4536 112.168 70.5212C112.235 70.5869 112.287 70.6659 112.322 70.7533C112.357 70.8406 112.374 70.9344 112.371 71.0288C112.374 71.1221 112.357 71.2149 112.322 71.3011C112.287 71.3873 112.235 71.4651 112.168 71.5293C112.103 71.5948 112.025 71.646 111.939 71.6801C111.853 71.7142 111.762 71.7304 111.67 71.7278H106.47V75.4281H112.258C112.44 75.4252 112.615 75.4959 112.746 75.6248Z" fill="#312A25"/>
<path d="M122.209 65.1262C122.399 65.1245 122.585 65.1861 122.738 65.3018C122.891 65.4134 123.003 65.575 123.056 65.7602L125.805 74.9277L128.553 65.7303C128.674 65.3322 128.918 65.1326 129.287 65.1314C129.477 65.1242 129.662 65.1929 129.802 65.3229C129.862 65.3745 129.91 65.4385 129.943 65.5106C129.977 65.5826 129.995 65.6611 129.996 65.7408C129.998 65.8782 129.982 66.0153 129.948 66.1483L126.744 76.1799C126.572 76.6786 126.249 76.928 125.782 76.928C125.566 76.9283 125.356 76.8548 125.186 76.719C125.01 76.5839 124.882 76.3941 124.82 76.1781L122.202 67.6762L119.57 76.1728C119.509 76.3891 119.38 76.579 119.204 76.7138C119.034 76.8495 118.824 76.9231 118.608 76.9227C118.14 76.9227 117.819 76.6716 117.647 76.1711L114.464 66.136C114.43 66.0024 114.414 65.8648 114.416 65.7268C114.418 65.6473 114.437 65.5693 114.471 65.4976C114.504 65.4259 114.552 65.3622 114.612 65.3106C114.744 65.1831 114.92 65.1143 115.101 65.1192C115.278 65.1094 115.452 65.1645 115.593 65.2747C115.733 65.3848 115.831 65.5427 115.867 65.7198L118.599 74.9224L121.362 65.7584C121.413 65.5727 121.525 65.4107 121.68 65.3C121.833 65.185 122.019 65.124 122.209 65.1262Z" fill="#312A25"/>
<path d="M99.0667 72.237C99.7651 72.1589 100.437 71.9186 101.03 71.5346C101.448 71.2873 101.81 70.9535 102.094 70.5546C102.445 70.0321 102.649 69.4212 102.685 68.7884C102.72 68.1556 102.585 67.5249 102.295 66.9649C102.126 66.6517 101.902 66.373 101.634 66.143C100.888 65.4978 99.7849 65.1753 98.3246 65.1753H94.5982C94.5017 65.1736 94.4058 65.1928 94.317 65.2315C94.2282 65.2703 94.1484 65.3277 94.0828 65.4001C93.9472 65.5464 93.8731 65.7412 93.8766 65.9427V76.1552C93.8751 76.2526 93.8926 76.3493 93.928 76.4398C93.9634 76.5302 94.016 76.6126 94.0828 76.6821C94.149 76.7532 94.2291 76.8093 94.3179 76.8468C94.4067 76.8843 94.5022 76.9024 94.5982 76.8998C94.6939 76.9004 94.7888 76.8814 94.8773 76.8441C94.9658 76.8067 95.0462 76.7516 95.1136 76.6821C95.1825 76.6137 95.237 76.5318 95.2739 76.4412C95.3108 76.3506 95.3294 76.2533 95.3284 76.1552V66.6101H98.1425C99.25 66.6101 100.06 66.7992 100.573 67.1774C101 67.5111 101.213 68.0116 101.213 68.679C101.219 69.0484 101.127 69.4127 100.946 69.7327C100.792 69.9956 100.584 70.2205 100.335 70.3913C99.7145 70.8444 99.0444 70.8883 98.6338 70.9181C98.3548 70.9368 98.0746 70.928 97.7971 70.8918C97.6567 70.8583 97.5099 70.865 97.3729 70.9111C97.2359 70.9573 97.114 71.0411 97.0206 71.1535C96.9125 71.2969 96.8539 71.4729 96.8539 71.654C96.8539 71.8351 96.9125 72.0111 97.0206 72.1545L101.462 76.6944C101.592 76.8258 101.768 76.8996 101.951 76.8996C102.135 76.8996 102.31 76.8258 102.441 76.6944C102.506 76.629 102.558 76.5509 102.593 76.4649C102.629 76.3788 102.647 76.2863 102.647 76.193C102.647 76.0996 102.629 76.0072 102.593 75.9211C102.558 75.835 102.506 75.7569 102.441 75.6916L99.0667 72.237Z" fill="#312A25"/>
</svg>
