<svg width="28" height="28" viewBox="0 0 28 28" fill="none" xmlns="http://www.w3.org/2000/svg">
<g clip-path="url(#clip0_31_193)">
<path d="M14 5.00879C10.7 5.00879 8 7.71359 8 11.0195C8 14.3253 10.7 17.0301 14 17.0301C17.3 17.0301 20 14.3253 20 11.0195C20 7.71359 17.3 5.00879 14 5.00879ZM14 15.0266C13.2089 15.0266 12.4355 14.7916 11.7777 14.3513C11.1199 13.9109 10.6072 13.2851 10.3045 12.5529C10.0017 11.8207 9.92252 11.015 10.0769 10.2377C10.2312 9.46041 10.6122 8.74641 11.1716 8.186C11.731 7.6256 12.4437 7.24396 13.2196 7.08934C13.9956 6.93473 14.7998 7.01408 15.5307 7.31737C16.2616 7.62066 16.8864 8.13426 17.3259 8.79323C17.7654 9.45219 18 10.2269 18 11.0195C17.9968 12.0812 17.5744 13.0986 16.8249 13.8494C16.0755 14.6002 15.0599 15.0234 14 15.0266Z" fill="#C8A88F"/>
<path d="M14 5.00879C10.7 5.00879 8 7.71359 8 11.0195C8 14.3253 10.7 17.0301 14 17.0301C17.3 17.0301 20 14.3253 20 11.0195C20 7.71359 17.3 5.00879 14 5.00879ZM14 15.0266C13.2089 15.0266 12.4355 14.7916 11.7777 14.3513C11.1199 13.9109 10.6072 13.2851 10.3045 12.5529C10.0017 11.8207 9.92252 11.015 10.0769 10.2377C10.2312 9.46041 10.6122 8.74641 11.1716 8.186C11.731 7.6256 12.4437 7.24396 13.2196 7.08934C13.9956 6.93473 14.7998 7.01408 15.5307 7.31737C16.2616 7.62066 16.8864 8.13426 17.3259 8.79323C17.7654 9.45219 18 10.2269 18 11.0195C17.9968 12.0812 17.5744 13.0986 16.8249 13.8494C16.0755 14.6002 15.0599 15.0234 14 15.0266Z" stroke="#C8A88F"/>
<path d="M14.0001 0C11.2429 -0.000394508 8.54695 0.814804 6.25045 2.34335C3.95394 3.87189 2.15911 6.04571 1.09108 8.59216C0.0230436 11.1386 -0.270639 13.9443 0.246866 16.6573C0.764372 19.3703 2.07002 21.8698 4.00005 23.8423C4.61019 24.4587 5.28017 25.0125 6.00005 25.4956C8.25034 27.0984 11.0001 28 14.0001 28C16.8588 27.9991 19.6494 27.1255 22.0001 25.4956C22.7007 24.9871 23.3687 24.4349 24.0001 23.8423C25.9301 21.8698 27.2357 19.3703 27.7532 16.6573C28.2707 13.9443 27.9771 11.1386 26.909 8.59216C25.841 6.04571 24.0462 3.87189 21.7497 2.34335C19.4532 0.814804 16.7572 -0.000394508 14.0001 0ZM14.0001 26.0462C11.0001 26.0462 8.30005 24.9443 6.20005 23.1411C6.74977 21.3379 8.40005 20.0356 10.3498 20.0356H17.6995C19.6498 20.0356 21.2995 21.3379 21.8498 23.1411C19.6995 24.9443 16.9995 26.0462 14.0001 26.0462ZM23.3498 21.5382C22.8268 20.4851 22.021 19.5989 21.0228 18.9795C20.0246 18.3601 18.8737 18.032 17.6995 18.032H10.3498C9.17508 18.0292 8.02311 18.3562 7.02451 18.9759C6.02592 19.5957 5.22065 20.4833 4.70005 21.5382C2.94765 19.4289 1.99186 16.7692 2.00005 14.0249C2.00005 7.41316 7.40005 2.00356 14.0001 2.00356C20.6001 2.00356 26.0001 7.41316 26.0001 14.0249C26.0023 16.7596 25.0667 19.4121 23.3498 21.5382Z" fill="#C8A88F"/>
<path d="M14.0001 0C11.2429 -0.000394508 8.54695 0.814804 6.25045 2.34335C3.95394 3.87189 2.15911 6.04571 1.09108 8.59216C0.0230436 11.1386 -0.270639 13.9443 0.246866 16.6573C0.764372 19.3703 2.07002 21.8698 4.00005 23.8423C4.61019 24.4587 5.28017 25.0125 6.00005 25.4956C8.25034 27.0984 11.0001 28 14.0001 28C16.8588 27.9991 19.6494 27.1255 22.0001 25.4956C22.7007 24.9871 23.3687 24.4349 24.0001 23.8423C25.9301 21.8698 27.2357 19.3703 27.7532 16.6573C28.2707 13.9443 27.9771 11.1386 26.909 8.59216C25.841 6.04571 24.0462 3.87189 21.7497 2.34335C19.4532 0.814804 16.7572 -0.000394508 14.0001 0ZM14.0001 26.0462C11.0001 26.0462 8.30005 24.9443 6.20005 23.1411C6.74977 21.3379 8.40005 20.0356 10.3498 20.0356H17.6995C19.6498 20.0356 21.2995 21.3379 21.8498 23.1411C19.6995 24.9443 16.9995 26.0462 14.0001 26.0462ZM23.3498 21.5382C22.8268 20.4851 22.021 19.5989 21.0228 18.9795C20.0246 18.3601 18.8737 18.032 17.6995 18.032H10.3498C9.17508 18.0292 8.02311 18.3562 7.02451 18.9759C6.02592 19.5957 5.22065 20.4833 4.70005 21.5382C2.94765 19.4289 1.99186 16.7692 2.00005 14.0249C2.00005 7.41316 7.40005 2.00356 14.0001 2.00356C20.6001 2.00356 26.0001 7.41316 26.0001 14.0249C26.0023 16.7596 25.0667 19.4121 23.3498 21.5382Z" stroke="#C8A88F"/>
<g clip-path="url(#clip1_31_193)">
<path d="M96.5352 -161.539C55.0378 -161.539 28.847 -141.343 13.6409 -123.085C-1.55811 -141.343 -27.7489 -161.539 -69.2607 -161.539C-139.921 -161.539 -187.385 -96.0832 -187.385 -34.9499C-187.385 54.0758 -16.4412 173.32 3.05112 186.623C6.1743 188.747 9.86395 189.883 13.6409 189.883C17.4178 189.883 21.1074 188.747 24.2306 186.623C43.7229 173.32 214.667 54.0471 214.667 -34.9499C214.667 -96.0832 167.196 -161.539 96.5352 -161.539ZM13.6409 148.206C-53.674 100.326 -149.807 14.6676 -149.807 -34.9499C-149.807 -72.2832 -121.807 -123.975 -69.2535 -123.975C-21.4453 -123.975 -4.56631 -82.6863 -3.92015 -81.0493C-2.56644 -77.5135 -0.175262 -74.4695 2.93948 -72.317C6.05424 -70.1644 9.74704 -69.0039 13.5332 -68.9878H13.6409C17.4164 -69.0013 21.1014 -70.1451 24.2211 -72.2718C27.3408 -74.3985 29.7521 -77.4106 31.1445 -80.9201C31.8624 -82.6863 48.7198 -123.997 96.4778 -123.997C149.046 -123.997 177.046 -72.3047 177.046 -34.9714C177.046 14.5671 80.8983 100.276 13.5762 148.184L13.6409 148.206Z" fill="black"/>
</g>
</g>
<defs>
<clipPath id="clip0_31_193">
<rect width="28" height="28" fill="white"/>
</clipPath>
<clipPath id="clip1_31_193">
<rect width="402.051" height="351.429" fill="white" transform="translate(-187.385 -161.539)"/>
</clipPath>
</defs>
</svg>
