<svg width="27" height="43" viewBox="0 0 27 43" fill="none" xmlns="http://www.w3.org/2000/svg">
<g clip-path="url(#clip0_93_117)">
<path d="M7.11843 31.7499L12.5679 42.6725C12.5855 42.7079 12.5931 42.7471 12.5899 42.7861C12.5867 42.8252 12.5728 42.8627 12.5496 42.8951C12.5264 42.9275 12.4947 42.9536 12.4576 42.9708C12.4206 42.988 12.3794 42.9956 12.3382 42.9931C11.6437 42.9416 10.954 42.8427 10.2744 42.6972C8.86528 42.4 7.52271 41.8684 6.30891 41.1268C5.10846 40.3878 4.05718 39.4507 3.20488 38.3599C2.542 37.5106 2.00721 36.5776 1.61597 35.588C1.60061 35.5497 1.59684 35.508 1.60511 35.4678C1.61337 35.4275 1.63333 35.3902 1.66273 35.3602C2.57754 34.4211 3.59667 33.5788 4.70234 32.8478C5.37293 32.4051 6.07346 32.0047 6.7994 31.6493C6.8272 31.6355 6.85764 31.6271 6.88891 31.6247C6.92017 31.6223 6.95162 31.626 6.98139 31.6354C7.01116 31.6447 7.03863 31.6597 7.06217 31.6794C7.08572 31.6991 7.10485 31.723 7.11843 31.7499Z" fill="#C46C33"/>
<path d="M25.8309 34.8324C24.3792 33.1941 22.5833 31.8613 20.5581 30.9193C20.5015 30.8927 20.458 30.8462 20.4371 30.7896C20.4161 30.733 20.4193 30.6709 20.4459 30.6165L25.6646 20.1526C25.8309 19.8201 26.0387 19.8418 26.1198 20.2009C26.3879 21.3881 26.5922 22.5875 26.7319 23.7944C26.9164 25.3276 27.0056 26.8697 26.999 28.4128C26.9782 30.6984 26.6113 32.76 25.8777 34.716C25.8631 34.7555 25.8465 34.793 25.8309 34.8324Z" fill="#C46C33"/>
<path d="M22.838 39.4923C21.0714 41.2274 18.8745 42.3391 16.2994 42.7968C15.7584 42.891 15.2124 42.9569 14.6638 42.9941C14.4383 43.0098 14.3323 42.8599 14.4299 42.6656L19.8763 31.7479C19.8899 31.7201 19.9092 31.6952 19.933 31.6746C19.9569 31.6541 19.9848 31.6382 20.0152 31.628C20.0456 31.6178 20.0778 31.6135 20.11 31.6153C20.1422 31.617 20.1737 31.6249 20.2026 31.6384C22.2076 32.5742 23.9736 33.9136 25.3777 35.5634C25.4038 35.5979 25.4204 35.6381 25.4262 35.6802C25.432 35.7224 25.4268 35.7653 25.411 35.805C24.7911 37.1696 23.9198 38.4182 22.838 39.4923Z" fill="#C46C33"/>
<path d="M19.3662 30.4202C18.5898 30.1309 17.7906 29.9001 16.9761 29.7297C16.9151 29.7166 16.8617 29.6818 16.8271 29.6324C16.7925 29.583 16.7792 29.5228 16.7901 29.4643L20.9208 8.73375C20.9863 8.40528 21.19 8.37075 21.3677 8.65879C23.0314 11.3415 24.3532 14.2025 25.3051 17.1814C25.4174 17.5366 25.5223 17.8936 25.6242 18.2507C25.6357 18.304 25.6303 18.3592 25.6086 18.4095L19.6738 30.3077C19.6468 30.3597 19.6001 30.4001 19.5432 30.421C19.4862 30.4418 19.423 30.4415 19.3662 30.4202Z" fill="#C46C33"/>
<path d="M15.6917 29.5117C15.1856 29.4456 14.6713 29.4022 14.1517 29.3825C14.0898 29.38 14.0313 29.3551 13.9882 29.3129C13.9451 29.2707 13.9207 29.2144 13.9199 29.1556L13.9199 0.281139C13.9199 -0.0147868 14.1039 -0.0897479 14.3283 0.115427L14.4063 0.186447C16.4394 2.06994 18.265 4.14525 19.8547 6.38018C20.0154 6.60574 20.1737 6.8326 20.3296 7.0608C20.3605 7.11183 20.3726 7.17121 20.3639 7.22949L15.9609 29.3253C15.9494 29.383 15.9152 29.4345 15.8652 29.4691C15.8152 29.5038 15.7532 29.519 15.6917 29.5117Z" fill="#C46C33"/>
<path d="M12.8474 29.3825C12.3409 29.4022 11.8415 29.4437 11.3489 29.5068C11.2879 29.5139 11.2264 29.499 11.1765 29.465C11.1266 29.431 11.0921 29.3804 11.0797 29.3233L6.67049 7.19398C6.66268 7.1356 6.67508 7.07641 6.70582 7.02531C7.02312 6.56498 7.35011 6.1063 7.68681 5.64926C9.14336 3.69179 10.7863 1.86548 12.5949 0.193363L12.6718 0.122343C12.8962 -0.0818454 13.0802 -0.00589692 13.0802 0.289043L13.0802 29.1556C13.0792 29.2145 13.0545 29.2708 13.0112 29.3129C12.968 29.3551 12.9093 29.38 12.8474 29.3825Z" fill="#C46C33"/>
<path d="M6.09989 8.61932C7.48547 15.5736 8.87104 22.5272 10.2566 29.4801C10.2662 29.5319 10.2544 29.5853 10.2236 29.629C10.1929 29.6727 10.1455 29.7035 10.0914 29.7149C9.24462 29.8892 8.41404 30.128 7.60775 30.4291C7.55786 30.4475 7.50252 30.4476 7.45256 30.4293C7.40259 30.4111 7.36159 30.3758 7.33756 30.3304L1.39137 18.4095C1.37195 18.3652 1.36724 18.3164 1.37786 18.2695C1.45406 18.0018 1.53373 17.7335 1.61687 17.4646C2.58484 14.3432 3.9592 11.3487 5.70812 8.55027C5.86504 8.3017 6.04274 8.33227 6.09989 8.61932Z" fill="#C46C33"/>
<path d="M0.0717755 26.4656C0.119578 25.5443 0.168419 24.5914 0.279612 23.6681C0.425097 22.5061 0.626351 21.3553 0.883375 20.2156C0.964431 19.8556 1.17227 19.8349 1.3375 20.1673L6.54899 30.6155C6.57561 30.6699 6.57877 30.732 6.5578 30.7886C6.53683 30.8451 6.4934 30.8917 6.43676 30.9183C4.54754 31.7968 2.8568 33.0164 1.45909 34.5089C1.3084 34.6696 1.12343 34.6391 1.04965 34.4359C0.85636 33.9032 0.683856 33.3508 0.530058 32.7589C0.13413 31.1984 0.0281332 29.6231 -0.00927734 27.7401L-0.00927734 27.7223C0.0187805 27.3041 0.0406036 26.8848 0.0624264 26.4617" fill="#C46C33"/>
<path d="M13.764 42.4881L19.0535 31.6039C19.0669 31.5763 19.0742 31.5463 19.075 31.5159C19.0758 31.4854 19.07 31.4552 19.058 31.4269C19.0461 31.3987 19.0281 31.373 19.0054 31.3516C18.9826 31.3301 18.9555 31.3133 18.9257 31.3021C17.2144 30.6581 15.3928 30.3194 13.5521 30.3029C11.6771 30.2881 9.81589 30.6076 8.06518 31.2449C8.03494 31.256 8.00744 31.273 7.98438 31.2946C7.96132 31.3163 7.94319 31.3422 7.93111 31.3707C7.91903 31.3993 7.91326 31.43 7.91415 31.4607C7.91505 31.4915 7.92259 31.5218 7.93632 31.5497C9.73757 35.1955 11.5388 38.842 13.3401 42.4891C13.3595 42.5267 13.3898 42.5584 13.4273 42.5806C13.4648 42.6027 13.5082 42.6144 13.5524 42.6143C13.5966 42.6142 13.6398 42.6023 13.6773 42.58C13.7147 42.5577 13.7448 42.5259 13.764 42.4881Z" fill="#C46C33"/>
<path d="M10.7307 109.921C38.9684 51.8313 99.4686 21.65 145.664 41.8516C191.86 62.0532 206.949 125.29 178.711 183.38C150.473 241.469 89.9732 271.65 43.7776 251.449C-2.41797 231.247 -17.507 168.01 10.7307 109.921Z" stroke="#C46C33" stroke-width="2"/>
</g>
<defs>
<clipPath id="clip0_93_117">
<rect width="27" height="43" fill="white"/>
</clipPath>
</defs>
</svg>
