<svg width="66" height="46" viewBox="0 0 66 46" fill="none" xmlns="http://www.w3.org/2000/svg">
<path d="M65.627 22.0455C65.2587 20.9394 64.1529 20.3868 63.048 20.3868H8.88998L23.0771 4.53942C23.9988 3.43425 23.9988 1.59136 22.8892 0.67038C21.7796 -0.250597 19.9437 -0.246838 19.0258 0.854576L0.783612 21.1245C0.23492 21.8613 -0.140897 22.5981 0.0470113 23.5191V23.707C0.0470113 23.895 0.0470113 24.0754 0.23492 24.0754C0.241499 24.171 0.282415 24.2609 0.35011 24.3286C0.417806 24.3963 0.50771 24.4372 0.60322 24.4438L0.791128 24.6318L19.0258 45.0793C19.5791 45.6319 20.3158 46.0013 21.0524 46.0013C21.789 46.0013 22.3423 45.8133 22.8948 45.2635C24.0006 44.1584 24.1848 42.4997 23.0827 41.3945L9.08352 25.5471H63.2359C64.71 25.5471 65.9991 24.2568 65.9991 22.7832C65.8112 22.5953 65.8112 22.2297 65.6308 22.0455H65.627Z" fill="#F9F0EA"/>
</svg>
