<svg width="42" height="35" viewBox="0 0 42 35" fill="none" xmlns="http://www.w3.org/2000/svg">
<g clip-path="url(#clip0_18_893)">
<path d="M29.6595 0C25.3245 0 22.5885 2.01138 21 3.8297C19.4123 2.01138 16.6763 0 12.3398 0C4.95825 0 0 6.51893 0 12.6074C0 21.4738 17.8575 33.3497 19.8938 34.6747C20.22 34.8862 20.6054 34.9993 21 34.9993C21.3946 34.9993 21.78 34.8862 22.1063 34.6747C24.1425 33.3497 42 21.4709 42 12.6074C42 6.51893 37.041 0 29.6595 0V0ZM21 30.8485C13.968 26.08 3.9255 17.549 3.9255 12.6074C3.9255 8.88925 6.8505 3.74104 12.3405 3.74104C17.3347 3.74104 19.098 7.85318 19.1655 8.0162C19.3069 8.36835 19.5567 8.67151 19.8821 8.88589C20.2075 9.10027 20.5932 9.21585 20.9888 9.21745H21C21.3944 9.21611 21.7794 9.10219 22.1053 8.89039C22.4312 8.67858 22.6831 8.37859 22.8285 8.02907C22.9035 7.85318 24.6645 3.73889 29.6535 3.73889C35.145 3.73889 38.07 8.88711 38.07 12.6053C38.07 17.539 28.026 26.075 20.9933 30.8464L21 30.8485Z" fill="#F9F0EA"/>
</g>
<defs>
<clipPath id="clip0_18_893">
<rect width="42" height="35" fill="white"/>
</clipPath>
</defs>
</svg>
