<svg width="46" height="46" viewBox="0 0 46 46" fill="none" xmlns="http://www.w3.org/2000/svg">
<g clip-path="url(#clip0_58_201)">
<path d="M22.9997 8.229C17.5783 8.229 13.1426 12.6726 13.1426 18.1037C13.1426 23.5348 17.5783 27.9784 22.9997 27.9784C28.4212 27.9784 32.8569 23.5348 32.8569 18.1037C32.8569 12.6726 28.4212 8.229 22.9997 8.229ZM22.9997 24.6868C21.7 24.6868 20.4295 24.3007 19.3488 23.5773C18.2682 22.854 17.4259 21.8258 16.9285 20.6229C16.4311 19.42 16.301 18.0964 16.5546 16.8194C16.8081 15.5424 17.434 14.3694 18.353 13.4487C19.2721 12.528 20.443 11.9011 21.7177 11.6471C22.9924 11.393 24.3137 11.5234 25.5145 12.0217C26.7153 12.5199 27.7416 13.3637 28.4637 14.4463C29.1857 15.5289 29.5711 16.8017 29.5711 18.1037C29.566 19.848 28.8719 21.5194 27.6407 22.7529C26.4094 23.9863 24.741 24.6816 22.9997 24.6868Z" fill="#C8A88F"/>
<path d="M22.9997 8.229C17.5783 8.229 13.1426 12.6726 13.1426 18.1037C13.1426 23.5348 17.5783 27.9784 22.9997 27.9784C28.4212 27.9784 32.8569 23.5348 32.8569 18.1037C32.8569 12.6726 28.4212 8.229 22.9997 8.229ZM22.9997 24.6868C21.7 24.6868 20.4295 24.3007 19.3488 23.5773C18.2682 22.854 17.4259 21.8258 16.9285 20.6229C16.4311 19.42 16.301 18.0964 16.5546 16.8194C16.8081 15.5424 17.434 14.3694 18.353 13.4487C19.2721 12.528 20.443 11.9011 21.7177 11.6471C22.9924 11.393 24.3137 11.5234 25.5145 12.0217C26.7153 12.5199 27.7416 13.3637 28.4637 14.4463C29.1857 15.5289 29.5711 16.8017 29.5711 18.1037C29.566 19.848 28.8719 21.5194 27.6407 22.7529C26.4094 23.9863 24.741 24.6816 22.9997 24.6868Z" stroke="#C8A88F"/>
<path d="M23.0004 0C18.4707 -0.00064812 14.0417 1.33861 10.2689 3.84978C6.49605 6.36096 3.54739 9.93224 1.79277 14.1157C0.0381364 18.2991 -0.444343 22.9085 0.405845 27.3655C1.25603 31.8226 3.40103 35.929 6.5718 39.1695C7.57415 40.1821 8.67484 41.0919 9.85751 41.8856C13.5544 44.5188 18.0718 46 23.0004 46C27.6969 45.9985 32.2815 44.5632 36.1432 41.8856C37.2942 41.0502 38.3917 40.143 39.4289 39.1695C42.5997 35.929 44.7447 31.8226 45.5949 27.3655C46.4451 22.9085 45.9626 18.2991 44.208 14.1157C42.4533 9.93224 39.5047 6.36096 35.7319 3.84978C31.959 1.33861 27.53 -0.00064812 23.0004 0ZM23.0004 42.7903C18.0718 42.7903 13.6361 40.9799 10.1861 38.0175C11.0892 35.0551 13.8004 32.9156 17.0035 32.9156H29.078C32.282 32.9156 34.9923 35.0551 35.8963 38.0175C32.3637 40.9799 27.928 42.7903 23.0004 42.7903ZM38.3606 35.3843C37.5015 33.654 36.1776 32.1982 34.5377 31.1806C32.8978 30.163 31.007 29.6239 29.078 29.624H17.0035C15.0736 29.6194 13.1811 30.1566 11.5406 31.1748C9.9 32.1929 8.57707 33.6512 7.7218 35.3843C4.84285 31.9189 3.27261 27.5494 3.28608 23.0409C3.28608 12.1788 12.1575 3.29156 23.0004 3.29156C33.8432 3.29156 42.7147 12.1788 42.7147 23.0409C42.7184 27.5337 41.1813 31.8913 38.3606 35.3843Z" fill="#C8A88F"/>
<path d="M23.0004 0C18.4707 -0.00064812 14.0417 1.33861 10.2689 3.84978C6.49605 6.36096 3.54739 9.93224 1.79277 14.1157C0.0381364 18.2991 -0.444343 22.9085 0.405845 27.3655C1.25603 31.8226 3.40103 35.929 6.5718 39.1695C7.57415 40.1821 8.67484 41.0919 9.85751 41.8856C13.5544 44.5188 18.0718 46 23.0004 46C27.6969 45.9985 32.2815 44.5632 36.1432 41.8856C37.2942 41.0502 38.3917 40.143 39.4289 39.1695C42.5997 35.929 44.7447 31.8226 45.5949 27.3655C46.4451 22.9085 45.9626 18.2991 44.208 14.1157C42.4533 9.93224 39.5047 6.36096 35.7319 3.84978C31.959 1.33861 27.53 -0.00064812 23.0004 0ZM23.0004 42.7903C18.0718 42.7903 13.6361 40.9799 10.1861 38.0175C11.0892 35.0551 13.8004 32.9156 17.0035 32.9156H29.078C32.282 32.9156 34.9923 35.0551 35.8963 38.0175C32.3637 40.9799 27.928 42.7903 23.0004 42.7903ZM38.3606 35.3843C37.5015 33.654 36.1776 32.1982 34.5377 31.1806C32.8978 30.163 31.007 29.6239 29.078 29.624H17.0035C15.0736 29.6194 13.1811 30.1566 11.5406 31.1748C9.9 32.1929 8.57707 33.6512 7.7218 35.3843C4.84285 31.9189 3.27261 27.5494 3.28608 23.0409C3.28608 12.1788 12.1575 3.29156 23.0004 3.29156C33.8432 3.29156 42.7147 12.1788 42.7147 23.0409C42.7184 27.5337 41.1813 31.8913 38.3606 35.3843Z" stroke="#C8A88F"/>
<g clip-path="url(#clip1_58_201)">
<path d="M158.594 -265.385C90.42 -265.385 47.3923 -232.206 22.4107 -202.211C-2.55902 -232.206 -45.5867 -265.385 -113.785 -265.385C-229.87 -265.385 -307.846 -157.851 -307.846 -57.4176C-307.846 88.8388 -27.0098 284.74 5.01328 306.596C10.1442 310.085 16.2058 311.951 22.4107 311.951C28.6157 311.951 34.6772 310.085 39.8082 306.596C71.8312 284.74 352.667 88.7917 352.667 -57.4176C352.667 -157.851 274.679 -265.385 158.594 -265.385ZM22.4107 243.481C-88.178 164.821 -246.111 24.0968 -246.111 -57.4176C-246.111 -118.751 -200.111 -203.674 -113.773 -203.674C-35.2308 -203.674 -7.50107 -135.842 -6.43951 -133.152C-4.21555 -127.343 -0.287201 -122.343 4.8299 -118.806C9.94699 -115.27 16.0137 -113.364 22.2338 -113.337H22.4107C28.6134 -113.359 34.6674 -115.238 39.7925 -118.732C44.9177 -122.226 48.8792 -127.175 51.1666 -132.94C52.3461 -135.842 80.0405 -203.709 158.5 -203.709C244.862 -203.709 290.862 -118.786 290.862 -57.453C290.862 23.9317 132.905 164.739 22.3046 243.446L22.4107 243.481Z" fill="black"/>
</g>
</g>
<defs>
<clipPath id="clip0_58_201">
<rect width="46" height="46" fill="white"/>
</clipPath>
<clipPath id="clip1_58_201">
<rect width="660.513" height="577.347" fill="white" transform="translate(-307.846 -265.385)"/>
</clipPath>
</defs>
</svg>
