<svg width="46" height="39" viewBox="0 0 46 39" fill="none" xmlns="http://www.w3.org/2000/svg">
<g clip-path="url(#clip0_58_195)">
<path d="M32.4842 0C27.7364 0 24.7398 2.24125 23 4.26738C21.261 2.24125 18.2645 0 13.515 0C5.43046 0 0 7.26395 0 14.0483C0 23.9279 19.5582 37.1611 21.7884 38.6375C22.1457 38.8732 22.5679 38.9992 23 38.9992C23.4321 38.9992 23.8543 38.8732 24.2116 38.6375C26.4418 37.1611 46 23.9247 46 14.0483C46 7.26395 40.5687 0 32.4842 0ZM23 34.3741C15.2983 29.0606 4.29936 19.5546 4.29936 14.0483C4.29936 9.90517 7.50293 4.16858 13.5158 4.16858C18.9857 4.16858 20.9169 8.75068 20.9908 8.93234C21.1457 9.32474 21.4193 9.66254 21.7756 9.90142C22.132 10.1403 22.5545 10.2691 22.9877 10.2709H23C23.432 10.2694 23.8536 10.1424 24.2105 9.90643C24.5674 9.67042 24.8433 9.33615 25.0026 8.94668C25.0848 8.75068 27.0135 4.16619 32.4776 4.16619C38.4921 4.16619 41.6957 9.90278 41.6957 14.0459C41.6957 19.5434 30.6951 29.055 22.9926 34.3717L23 34.3741Z" fill="#C8A88F"/>
</g>
<defs>
<clipPath id="clip0_58_195">
<rect width="46" height="39" fill="white"/>
</clipPath>
</defs>
</svg>
