<svg width="53" height="38" viewBox="0 0 53 38" fill="none" xmlns="http://www.w3.org/2000/svg">
<g clip-path="url(#clip0_58_197)">
<path d="M51.4405 6.81491H23.2121C23.0167 6.80936 22.8223 6.8428 22.6406 6.9132C22.4588 6.9836 22.2936 7.08949 22.155 7.22442C22.14 7.23699 22.1261 7.25166 22.1111 7.26527C22.0962 7.27889 22.0844 7.29145 22.0716 7.30716C21.9338 7.44295 21.8256 7.60483 21.7538 7.78292C21.6819 7.96101 21.6478 8.15158 21.6536 8.34299V8.94522C21.6575 9.34903 21.823 9.73522 22.1144 10.0208C22.4058 10.3063 22.8 10.4684 23.2121 10.4723H48.5641L44.8476 23.3987H18.5047C16.3669 15.9216 14.2836 8.45611 11.6809 1.11732C11.4511 0.469008 10.9059 -0.00439453 10.178 -0.00439453H1.55951C1.14711 -0.000571808 0.752709 0.161649 0.461084 0.447396C0.16946 0.733144 0.00390135 1.1196 0 1.52369V2.13744C0.0039056 2.54143 0.169498 2.92778 0.461152 3.21336C0.752805 3.49894 1.14721 3.66093 1.55951 3.66448H8.62062C11.1603 11.0085 13.2051 18.4803 15.3547 25.9469C15.4483 26.2664 15.6448 26.5478 15.9148 26.7492C16.1848 26.9505 16.5139 27.0611 16.8532 27.0644H46.4979C46.8386 27.0618 47.1693 26.9511 47.4404 26.7488C47.7116 26.5466 47.9085 26.2638 48.0019 25.9427C49.6494 20.2116 51.2969 14.4801 52.9444 8.74832C53.0052 8.52173 53.0124 8.28454 52.9657 8.05478C52.9189 7.82503 52.8192 7.60874 52.6744 7.42236C52.5295 7.23598 52.3432 7.0844 52.1295 6.97915C51.9159 6.87389 51.6806 6.81772 51.4416 6.81491H51.4405Z" fill="#C8A88F"/>
<path d="M23.9732 27.9494C23.8211 27.9111 23.664 27.8952 23.5071 27.9023C23.353 27.8949 23.1985 27.9093 23.0486 27.9452C20.3827 28.2793 18.5058 30.2494 18.3572 32.9463C18.2011 35.7909 20.8349 37.8521 23.5071 37.9935C26.407 38.1475 28.5106 35.5657 28.656 32.9484C28.8024 30.2724 26.4754 28.2898 23.9732 27.9494ZM23.5071 34.3382C21.6836 34.2408 21.6825 31.6654 23.5071 31.568C25.3317 31.4706 25.3242 34.2377 23.5071 34.3351V34.3382Z" fill="#C8A88F"/>
<path d="M40.31 27.9498C40.1578 27.9122 40.0007 27.897 39.8439 27.9048C39.6898 27.8974 39.5353 27.9119 39.3854 27.9477C36.7206 28.2818 34.8437 30.2519 34.6951 32.9488C34.539 35.7914 37.1738 37.8525 39.8439 37.9939C42.7449 38.1479 44.8485 35.5672 44.9939 32.9488C45.1403 30.2729 42.8133 28.2902 40.31 27.9498ZM39.8439 34.3387C38.0204 34.2413 38.0204 31.6658 39.8439 31.5684C41.6675 31.471 41.6589 34.2381 39.8439 34.3355V34.3387Z" fill="#C8A88F"/>
</g>
<defs>
<clipPath id="clip0_58_197">
<rect width="53" height="38" fill="white"/>
</clipPath>
</defs>
</svg>
