<svg width="403" height="37" viewBox="0 0 403 37" fill="none" xmlns="http://www.w3.org/2000/svg">
<path d="M32.4408 32.8785C32.6105 33.2821 32.6957 33.7152 32.6911 34.1519C32.6671 34.6521 32.45 35.1244 32.084 35.4724C31.8269 35.7058 31.523 35.8837 31.1919 35.9947C30.8608 36.1057 30.5097 36.1474 30.1613 36.117C29.7311 36.1158 29.3126 35.9793 28.9667 35.7277C28.6208 35.476 28.3658 35.1222 28.2386 34.7178L24.9579 26.9519H7.74945L4.45267 34.7178C4.32441 35.1206 4.06868 35.4726 3.72282 35.7224C3.37695 35.9722 2.95897 36.1068 2.52992 36.1065C2.18148 36.1369 1.83042 36.0952 1.49931 35.9842C1.16819 35.8732 0.864263 35.6953 0.607171 35.4619C0.24116 35.114 0.0240422 34.6416 6.11857e-05 34.1414C-0.00264273 33.7044 0.0842982 33.2713 0.2557 32.868L13.1873 2.90511C13.7945 1.54617 14.7727 0.866699 16.1219 0.866699H16.6279C17.9771 0.866699 18.9554 1.54786 19.5625 2.91029L32.4408 32.8785ZM23.1896 22.8175L16.3723 6.63082L9.52293 22.8071L23.1896 22.8175Z" fill="#C8A88F"/>
<path d="M60.9965 32.035C61.2165 32.2448 61.3905 32.4967 61.5078 32.7752C61.625 33.0537 61.6831 33.3528 61.6782 33.6542C61.6806 33.9488 61.6207 34.2406 61.5024 34.5112C61.3842 34.7818 61.2101 35.0253 60.9912 35.2262C60.7743 35.4361 60.517 35.6011 60.2344 35.7118C59.9518 35.8225 59.6495 35.8765 59.3454 35.8708H41.3807C40.9619 35.8761 40.5465 35.7971 40.16 35.6384C39.7734 35.4798 39.4239 35.245 39.1331 34.9485C38.8303 34.6624 38.5908 34.3178 38.4295 33.9364C38.2683 33.555 38.1886 33.145 38.1958 32.732L38.2224 3.1568C38.2173 2.85722 38.273 2.55961 38.3864 2.28155C38.4998 2.00348 38.6686 1.75053 38.8828 1.53756C39.0878 1.3234 39.3355 1.15328 39.6105 1.03785C39.8854 0.922424 40.1817 0.864226 40.4806 0.866872C40.7873 0.863106 41.0916 0.921089 41.3746 1.03734C41.6576 1.15359 41.9135 1.32561 42.1264 1.5428C42.3465 1.75255 42.5205 2.00447 42.6377 2.28296C42.755 2.56144 42.8129 2.86064 42.808 3.16204L42.7815 31.3433H59.3294C59.6408 31.3387 59.9499 31.3978 60.2369 31.5168C60.5238 31.6359 60.7825 31.8124 60.9965 32.035Z" fill="#C8A88F"/>
<path d="M105.117 1.89383C105.428 2.19606 105.674 2.55702 105.839 2.95503C106.005 3.35305 106.087 3.77994 106.081 4.20999L106.055 33.9319C106.058 34.2242 106.001 34.5143 105.888 34.7844C105.774 35.0546 105.606 35.2994 105.394 35.5039C105.185 35.7116 104.937 35.8757 104.662 35.9865C104.387 36.0972 104.093 36.1523 103.796 36.1485C103.492 36.1539 103.19 36.0997 102.907 35.9891C102.625 35.8784 102.368 35.7135 102.151 35.5039C101.933 35.3019 101.761 35.0581 101.643 34.7876C101.526 34.5172 101.467 34.2259 101.469 33.9319L101.495 5.63528L89.7782 34.0524C89.5169 34.6707 89.0759 35.1993 88.5105 35.5721C87.9277 35.9545 87.2405 36.1537 86.5399 36.1432C85.8369 36.1542 85.1473 35.9531 84.564 35.5668C84.0015 35.1924 83.5626 34.6641 83.3017 34.0472L71.6377 5.60906L71.6111 33.9057C71.6138 34.1998 71.5547 34.4913 71.4374 34.7619C71.32 35.0324 71.147 35.2761 70.9293 35.4777C70.7119 35.6868 70.4545 35.8514 70.172 35.9621C69.8896 36.0727 69.5877 36.1271 69.2837 36.1222C68.9866 36.1257 68.6918 36.07 68.4172 35.9583C68.1425 35.8466 67.8938 35.6813 67.6859 35.4725C67.4728 35.2688 67.3046 35.0241 67.1919 34.7536C67.0792 34.4831 67.0243 34.1927 67.0308 33.9004V4.17852C67.0258 3.74863 67.1085 3.32212 67.2741 2.92427C67.4397 2.52642 67.6846 2.16531 67.9947 1.86236C68.2927 1.55029 68.6537 1.30289 69.0544 1.13596C69.4552 0.969031 69.8871 0.886252 70.3222 0.892955H71.9945C72.661 0.889526 73.3102 1.10122 73.8427 1.49558C74.3824 1.87624 74.809 2.3918 75.0783 2.989L86.5453 31.1756L98.0549 3.00474C98.324 2.40732 98.7528 1.89299 99.2957 1.51656C99.8298 1.12579 100.478 0.916155 101.144 0.919181H102.816C103.248 0.915835 103.675 1.00073 104.071 1.16852C104.467 1.33631 104.823 1.58332 105.117 1.89383Z" fill="#C8A88F"/>
<path d="M131.093 0.699219C136.419 0.699219 140.701 2.37955 143.939 5.7402C147.078 9.02401 148.711 13.3069 148.839 18.589C148.701 23.8675 147.06 28.1487 143.918 31.4325C140.68 34.7827 136.394 36.4542 131.061 36.4472C125.728 36.4403 121.444 34.7617 118.209 31.4115C115.013 28.0893 113.382 23.8047 113.314 18.5576C113.382 13.3174 115.022 9.03802 118.236 5.71929C121.449 2.40055 125.735 0.727166 131.093 0.699219ZM131.093 32.2185C135.204 32.2185 138.444 30.9102 140.813 28.2937C143.11 25.7714 144.259 22.5348 144.259 18.5837C144.259 14.6327 143.115 11.396 140.829 8.87378C138.471 6.24674 135.233 4.93327 131.114 4.93327C126.995 4.93327 123.755 6.24155 121.394 8.85811C119.097 11.3769 117.946 14.6118 117.943 18.5628C117.939 22.5138 119.084 25.7504 121.378 28.2727C123.721 30.8997 126.951 32.215 131.066 32.2185H131.093Z" fill="#C8A88F"/>
<path d="M184.579 0.992624C184.885 0.988858 185.19 1.04684 185.473 1.16309C185.756 1.27935 186.011 1.45136 186.224 1.66855C186.444 1.8777 186.617 2.12874 186.735 2.40628C186.852 2.68381 186.91 2.98203 186.906 3.28255V33.0097C186.913 33.4382 186.828 33.8634 186.657 34.2578C186.487 34.6521 186.234 35.007 185.915 35.2996C185.607 35.6039 185.24 35.8442 184.836 36.0063C184.431 36.1683 183.998 36.2487 183.561 36.2428H182.954C182.432 36.2494 181.917 36.1301 181.452 35.8953C180.988 35.6605 180.589 35.3175 180.291 34.8961L160.729 7.04491V33.9843C160.733 34.2791 160.674 34.5716 160.556 34.8425C160.437 35.1134 160.262 35.3566 160.042 35.5563C159.825 35.7661 159.567 35.9312 159.285 36.0419C159.002 36.1526 158.7 36.2066 158.396 36.2009C158.099 36.2043 157.804 36.1486 157.529 36.0369C157.255 35.9252 157.006 35.76 156.798 35.5511C156.586 35.3463 156.419 35.1014 156.307 34.8312C156.194 34.5609 156.138 34.2711 156.143 33.9791V4.2572C156.137 3.82715 156.219 3.40026 156.385 3.00225C156.55 2.60423 156.796 2.24327 157.107 1.94105C157.405 1.62846 157.765 1.38073 158.166 1.21375C158.567 1.04678 158.999 0.964291 159.434 0.971643H160.095C160.645 0.989337 161.184 1.13424 161.667 1.39459C162.15 1.65494 162.564 2.02342 162.875 2.47031L182.283 30.1905V3.30346C182.277 3.00377 182.332 2.70596 182.446 2.42777C182.559 2.14958 182.729 1.89673 182.944 1.68429C183.151 1.46171 183.404 1.28496 183.686 1.16572C183.967 1.04648 184.272 0.987501 184.579 0.992624Z" fill="#C8A88F"/>
<path d="M225.423 12.3271C224.715 10.2736 223.592 8.38238 222.121 6.76737C218.794 3.04689 214.322 1.18663 208.705 1.18663H198.586C198.287 1.18367 197.99 1.24172 197.715 1.35717C197.44 1.47261 197.193 1.64297 196.988 1.85738C196.774 2.07035 196.605 2.32331 196.491 2.60137C196.378 2.87944 196.322 3.17698 196.327 3.47656V33.7487C196.325 34.041 196.381 34.3308 196.495 34.6009C196.608 34.871 196.776 35.1158 196.988 35.3208C197.191 35.5159 197.427 35.6754 197.686 35.7923C197.978 35.909 198.291 35.9678 198.607 35.9653C198.975 35.9583 199.338 35.8762 199.672 35.7243C200.737 35.2002 200.865 33.8011 200.87 33.733C200.87 24.3008 200.885 14.8563 200.913 5.39964H208.178C212.346 5.39964 215.709 6.61189 218.265 9.03631C220.751 11.4607 221.994 14.6363 221.994 18.5629C221.994 22.4895 220.751 25.6632 218.265 28.0841C215.716 30.512 212.353 31.7347 208.178 31.7522H207.741C207.212 31.7986 206.717 32.0295 206.346 32.4033C205.975 32.7771 205.752 33.2692 205.717 33.7906C205.714 34.3395 205.92 34.8698 206.294 35.2764C206.669 35.683 207.185 35.9364 207.741 35.9863H208.737C214.344 35.9863 218.816 34.1243 222.153 30.4003C223.627 28.7876 224.751 26.8957 225.455 24.8405C226.162 22.8277 226.522 20.7131 226.521 18.5838C226.51 16.4528 226.139 14.3385 225.423 12.3271Z" fill="#C8A88F"/>
<path d="M278.636 29.7295C278.996 29.5782 279.386 29.5101 279.776 29.5303C280.016 29.5296 280.253 29.5803 280.471 29.6789C280.689 29.7776 280.883 29.9218 281.038 30.1015C281.382 30.4581 281.572 30.9309 281.571 31.422C281.6 31.8101 281.509 32.1979 281.311 32.5344C281.112 32.871 280.815 33.1407 280.458 33.3084C278.836 34.1878 277.135 34.9192 275.377 35.4936C273.283 36.1314 271.098 36.4322 268.906 36.3844C266.516 36.4002 264.144 35.9846 261.907 35.1582C259.803 34.3774 257.891 33.1644 256.299 31.6002C252.933 28.3443 251.254 23.9775 251.261 18.4999C251.268 13.0222 252.956 8.65543 256.326 5.39957C259.596 2.21707 263.809 0.629331 268.964 0.636318C271.148 0.593326 273.324 0.897665 275.409 1.5376C276.834 1.98199 278.219 2.5393 279.552 3.20399C280.214 3.49749 280.807 3.92205 281.294 4.45114C281.509 4.81274 281.614 5.22731 281.598 5.6459C281.593 6.12656 281.403 6.58744 281.065 6.93495C280.908 7.11481 280.714 7.25902 280.495 7.35764C280.276 7.45626 280.038 7.50692 279.798 7.5061C279.409 7.52648 279.021 7.45833 278.663 7.30698C277.338 6.61797 275.951 6.05136 274.519 5.61443C272.8 5.14357 271.02 4.92462 269.236 4.96466C267.281 4.93481 265.339 5.29118 263.527 6.01268C261.91 6.65657 260.456 7.64019 259.266 8.89475C257.008 11.3087 255.877 14.5069 255.873 18.4894C255.869 22.4719 256.995 25.6719 259.25 28.0893C261.71 30.7094 265.096 32.0211 269.407 32.0246C271.132 32.0606 272.853 31.8452 274.514 31.3854C275.936 30.9569 277.316 30.4027 278.636 29.7295Z" fill="#C8A88F"/>
<path d="M349.522 32.3444C349.726 32.5427 349.888 32.7795 349.996 33.0406C350.105 33.3018 350.16 33.5818 350.156 33.8641C350.162 34.1428 350.109 34.4198 350 34.677C349.891 34.9343 349.728 35.1661 349.522 35.3575C349.317 35.5513 349.075 35.7033 348.81 35.8049C348.545 35.9066 348.262 35.9557 347.977 35.9496H327.739C327.441 35.9543 327.146 35.8992 326.871 35.7874C326.597 35.6757 326.348 35.5097 326.141 35.2999C325.929 35.095 325.762 34.8501 325.649 34.5799C325.537 34.3097 325.481 34.0198 325.486 33.7278V3.54479C325.48 3.24594 325.536 2.949 325.649 2.67172C325.763 2.39444 325.932 2.14244 326.146 1.9308C326.35 1.71484 326.597 1.54353 326.872 1.42796C327.148 1.31239 327.445 1.25521 327.744 1.26011H348.015C348.301 1.25495 348.585 1.30759 348.85 1.41485C349.115 1.5221 349.354 1.68166 349.554 1.88365C349.758 2.08192 349.92 2.31873 350.028 2.57986C350.137 2.84099 350.192 3.12107 350.188 3.4033C350.192 3.681 350.139 3.95663 350.029 4.21279C349.92 4.46896 349.759 4.70007 349.554 4.89147C349.35 5.08765 349.109 5.24162 348.843 5.34423C348.578 5.44684 348.294 5.49602 348.009 5.48885H330.066V16.4931H346.193C346.479 16.4879 346.764 16.5406 347.029 16.6479C347.293 16.7551 347.533 16.9147 347.732 17.1167C347.938 17.3125 348.1 17.5483 348.208 17.8089C348.316 18.0696 348.368 18.3496 348.361 18.631C348.368 18.9094 348.316 19.1862 348.208 19.4435C348.1 19.7008 347.938 19.9328 347.732 20.1245C347.528 20.3198 347.286 20.4728 347.021 20.5745C346.756 20.6762 346.472 20.7245 346.188 20.7167H330.066V31.7575H348.009C348.573 31.7487 349.116 31.9597 349.522 32.3444Z" fill="#C8A88F"/>
<path d="M378.857 1.01886C379.447 1.01394 380.022 1.19784 380.497 1.54287C380.973 1.87599 381.321 2.35812 381.482 2.91053L390.004 30.2639L398.526 2.82149C398.898 1.63373 399.656 1.03809 400.8 1.03459C401.388 1.01295 401.961 1.21786 402.398 1.60575C402.582 1.75991 402.731 1.95078 402.835 2.16577C402.938 2.38076 402.994 2.61496 402.999 2.85289C403.005 3.26286 402.955 3.67175 402.85 4.06864L392.917 34.0001C392.385 35.4883 391.383 36.2324 389.935 36.2324C389.265 36.2334 388.615 36.0139 388.087 35.6088C387.541 35.2058 387.143 34.6395 386.952 33.9949L378.835 8.62751L370.676 33.9792C370.486 34.6244 370.088 35.1912 369.541 35.5932C369.013 35.9982 368.363 36.2177 367.693 36.2167C366.245 36.2167 365.249 35.4674 364.716 33.9739L354.847 4.03192C354.742 3.63324 354.692 3.22268 354.698 2.811C354.706 2.57386 354.764 2.34096 354.868 2.12713C354.973 1.91331 355.122 1.72326 355.305 1.56909C355.714 1.18885 356.26 0.983519 356.823 0.997939C357.371 0.968754 357.912 1.13331 358.347 1.46195C358.783 1.79059 359.085 2.26162 359.198 2.79002L367.667 30.2482L376.231 2.90535C376.389 2.35108 376.737 1.86771 377.216 1.53762C377.691 1.19447 378.267 1.01242 378.857 1.01886Z" fill="#C8A88F"/>
<path d="M307.115 22.2358C309.28 22.0027 311.362 21.2857 313.202 20.1398C314.497 19.402 315.62 18.406 316.499 17.2158C317.587 15.6567 318.221 13.8342 318.331 11.946C318.44 10.0578 318.023 8.17609 317.122 6.50504C316.598 5.57051 315.903 4.73912 315.072 4.05264C312.76 2.12777 309.341 1.16533 304.814 1.16533H293.262C292.963 1.16042 292.666 1.21761 292.39 1.33318C292.115 1.44875 291.867 1.62012 291.664 1.83608C291.244 2.27259 291.014 2.85399 291.025 3.45526V33.9265C291.02 34.2171 291.074 34.5057 291.184 34.7756C291.294 35.0455 291.457 35.2912 291.664 35.4985C291.869 35.7107 292.118 35.8781 292.393 35.9901C292.668 36.102 292.964 36.1559 293.262 36.1483C293.559 36.15 293.853 36.0934 294.127 35.9819C294.402 35.8703 294.651 35.706 294.86 35.4985C295.073 35.2946 295.242 35.0501 295.357 34.7798C295.471 34.5096 295.529 34.2193 295.525 33.9265V5.44652H304.249C307.683 5.44652 310.195 6.0107 311.786 7.13907C313.106 8.13469 313.767 9.62815 313.767 11.6194C313.787 12.7217 313.502 13.8086 312.941 14.7635C312.464 15.548 311.817 16.2191 311.045 16.7285C309.123 18.0804 307.046 18.2114 305.773 18.3005C304.907 18.3561 304.039 18.3298 303.179 18.2219C302.743 18.1219 302.288 18.1419 301.864 18.2796C301.439 18.4173 301.061 18.6675 300.771 19.0027C300.436 19.4307 300.255 19.9558 300.255 20.4961C300.255 21.0364 300.436 21.5615 300.771 21.9895L314.539 35.5352C314.944 35.9275 315.489 36.1475 316.057 36.1475C316.625 36.1475 317.17 35.9275 317.575 35.5352C317.777 35.3401 317.938 35.1073 318.047 34.8504C318.157 34.5936 318.213 34.3177 318.213 34.0392C318.213 33.7606 318.157 33.4848 318.047 33.2279C317.938 32.9711 317.777 32.7382 317.575 32.5431L307.115 22.2358Z" fill="#C8A88F"/>
</svg>
